<svg class="main-svg" xmlns="http://www.w3.org/2000/svg" xmlns:xlink="http://www.w3.org/1999/xlink" width="1500" height="500" style="" viewBox="0 0 1500 500"><rect x="0" y="0" width="1500" height="500" style="fill: rgb(255, 255, 255); fill-opacity: 1;"/><defs id="defs-405e6f"><g class="clips"><clipPath id="clip405e6fxyplot" class="plotclip"><rect width="1440" height="220.1578947368421"/></clipPath><clipPath id="clip405e6fx2y2plot" class="plotclip"><rect width="1440" height="66.04736842105261"/></clipPath><clipPath id="clip405e6fx3y3plot" class="plotclip"><rect width="1440" height="66.04736842105261"/></clipPath><clipPath id="clip405e6fx4y4plot" class="plotclip"><rect width="1440" height="66.04736842105262"/></clipPath><clipPath class="axesclip" id="clip405e6fx"><rect x="60" y="0" width="1440" height="500"/></clipPath><clipPath class="axesclip" id="clip405e6fy"><rect x="0" y="30" width="1500" height="220.1578947368421"/></clipPath><clipPath class="axesclip" id="clip405e6fxy"><rect x="60" y="30" width="1440" height="220.1578947368421"/></clipPath><clipPath class="axesclip" id="clip405e6fy2"><rect x="0" y="259.0578947368422" width="1500" height="66.04736842105261"/></clipPath><clipPath class="axesclip" id="clip405e6fxy2"><rect x="60" y="259.0578947368422" width="1440" height="66.04736842105261"/></clipPath><clipPath class="axesclip" id="clip405e6fy3"><rect x="0" y="334.0052631578948" width="1500" height="66.04736842105261"/></clipPath><clipPath class="axesclip" id="clip405e6fxy3"><rect x="60" y="334.0052631578948" width="1440" height="66.04736842105261"/></clipPath><clipPath class="axesclip" id="clip405e6fy4"><rect x="0" y="408.9526315789474" width="1500" height="66.04736842105262"/></clipPath><clipPath class="axesclip" id="clip405e6fxy4"><rect x="60" y="408.9526315789474" width="1440" height="66.04736842105262"/></clipPath><clipPath class="axesclip" id="clip405e6fx2"><rect x="60" y="0" width="1440" height="500"/></clipPath><clipPath class="axesclip" id="clip405e6fx2y"><rect x="60" y="30" width="1440" height="220.1578947368421"/></clipPath><clipPath class="axesclip" id="clip405e6fx2y2"><rect x="60" y="259.0578947368422" width="1440" height="66.04736842105261"/></clipPath><clipPath class="axesclip" id="clip405e6fx2y3"><rect x="60" y="334.0052631578948" width="1440" height="66.04736842105261"/></clipPath><clipPath class="axesclip" id="clip405e6fx2y4"><rect x="60" y="408.9526315789474" width="1440" height="66.04736842105262"/></clipPath><clipPath class="axesclip" id="clip405e6fx3"><rect x="60" y="0" width="1440" height="500"/></clipPath><clipPath class="axesclip" id="clip405e6fx3y"><rect x="60" y="30" width="1440" height="220.1578947368421"/></clipPath><clipPath class="axesclip" id="clip405e6fx3y2"><rect x="60" y="259.0578947368422" width="1440" height="66.04736842105261"/></clipPath><clipPath class="axesclip" id="clip405e6fx3y3"><rect x="60" y="334.0052631578948" width="1440" height="66.04736842105261"/></clipPath><clipPath class="axesclip" id="clip405e6fx3y4"><rect x="60" y="408.9526315789474" width="1440" height="66.04736842105262"/></clipPath><clipPath class="axesclip" id="clip405e6fx4"><rect x="60" y="0" width="1440" height="500"/></clipPath><clipPath class="axesclip" id="clip405e6fx4y"><rect x="60" y="30" width="1440" height="220.1578947368421"/></clipPath><clipPath class="axesclip" id="clip405e6fx4y2"><rect x="60" y="259.0578947368422" width="1440" height="66.04736842105261"/></clipPath><clipPath class="axesclip" id="clip405e6fx4y3"><rect x="60" y="334.0052631578948" width="1440" height="66.04736842105261"/></clipPath><clipPath class="axesclip" id="clip405e6fx4y4"><rect x="60" y="408.9526315789474" width="1440" height="66.04736842105262"/></clipPath></g><g class="gradients"/><g class="patterns"/></defs><g class="bglayer"><rect class="bg" x="60" y="30" width="1440" height="220.1578947368421" style="fill: rgb(255, 255, 255); fill-opacity: 1; stroke-width: 0;"/><rect class="bg" x="60" y="259.0578947368422" width="1440" height="66.04736842105261" style="fill: rgb(255, 255, 255); fill-opacity: 1; stroke-width: 0;"/><rect class="bg" x="60" y="334.0052631578948" width="1440" height="66.04736842105261" style="fill: rgb(255, 255, 255); fill-opacity: 1; stroke-width: 0;"/><rect class="bg" x="60" y="408.9526315789474" width="1440" height="66.04736842105262" style="fill: rgb(255, 255, 255); fill-opacity: 1; stroke-width: 0;"/></g><g class="layer-below"><g class="imagelayer"/><g class="shapelayer"/></g><g class="cartesianlayer"><g class="subplot xy"><g class="layer-subplot"><g class="shapelayer"/><g class="imagelayer"/></g><g class="minor-gridlayer"><g class="x"/><g class="y"/></g><g class="gridlayer"><g class="x"/><g class="y"/></g><g class="zerolinelayer"><path class="xzl zl crisp" transform="translate(60,0)" d="M0,30v220.1578947368421" style="stroke: rgb(255, 255, 255); stroke-opacity: 1; stroke-width: 2px;"/></g><path class="xlines-below"/><path class="ylines-below"/><g class="overlines-below"/><g class="xaxislayer-below"/><g class="yaxislayer-below"/><g class="overaxes-below"/><g class="plot" transform="translate(60,30)" clip-path="url(#clip405e6fxyplot)"><g class="scatterlayer mlayer"><g class="trace scatter trace0c8545" style="stroke-miterlimit: 2;"><g class="fills"><g><path class="js-fill" d="M0,139.38L11.16,59.16L22.33,127.13L33.49,107.92L44.65,75.35L55.81,157.95L66.98,106.06L78.14,122.84L89.3,102.69L100.47,67.22L111.63,127.35L122.79,111.9L133.95,124.39L145.12,82.15L156.28,113.01L167.44,176.91L178.6,127.3L189.77,155.79L200.93,54.86L212.09,81.81L223.26,113.27L234.42,88.84L245.58,119.5L256.74,100.52L267.91,46.88L279.07,129.76L290.23,89.42L301.4,136.07L312.56,125.51L323.72,136.23L334.88,134.17L346.05,55.81L357.21,127.2L368.37,101.21L379.53,96.04L390.7,29.77L401.86,31.76L413.02,106.35L424.19,28.48L435.35,32.27L446.51,144.45L457.67,134.29L468.84,101.5L480,112.83L491.16,75.24L502.33,127.78L513.49,101.07L524.65,127.2L535.81,18.99L546.98,128.21L558.14,98.49L569.3,46.01L580.47,116.48L591.63,93.41L602.79,22.61L613.95,131.06L625.12,56.13L636.28,126.37L647.44,127.93L658.6,112.35L669.77,129.77L680.93,100.57L692.09,112.75L703.26,96.69L714.42,125.65L725.58,116.43L736.74,127.28L747.91,24.3L759.07,124.19L770.23,120.24L781.4,131.03L792.56,127.36L803.72,37.05L814.88,100.78L826.05,120.82L837.21,150.02L848.37,64.63L859.53,114.85L870.7,42.11L881.86,139.03L893.02,95.03L904.19,126.97L915.35,92.33L926.51,133.27L937.67,49.39L948.84,111.66L960,131.91L971.16,119.18L982.33,74.66L993.49,106.06L1004.65,106.28L1015.81,130.06L1026.98,125.93L1038.14,37.09L1049.3,100.21L1060.47,98.92L1071.63,131.11L1082.79,133.55L1093.95,115.24L1105.12,84.41L1116.28,144.25L1127.44,42.8L1138.6,86.92L1149.77,114.85L1160.93,110.76L1172.09,130.26L1183.26,135.32L1194.42,50.81L1205.58,22.44L1216.74,126.13L1227.91,66.35L1239.07,110.49L1250.23,134.63L1261.4,51.04L1272.56,96.29L1283.72,87.2L1294.88,106.03L1306.05,63.49L1317.21,78.18L1328.37,125.17L1339.53,72.18L1350.7,107.19L1361.86,97.81L1373.02,127.75L1384.19,124.64L1395.35,105.91L1406.51,111.72L1417.67,124.74L1428.84,117.5L1440,102.04L1440,129.85L1428.84,145.89L1417.67,152.15L1406.51,141.4L1395.35,134.07L1384.19,151.78L1373.02,187.54L1361.86,127.62L1350.7,138.48L1339.53,132.17L1328.37,151.24L1317.21,139.24L1306.05,97.73L1294.88,149.82L1283.72,120.98L1272.56,125.19L1261.4,110.53L1250.23,161.98L1239.07,138.35L1227.91,123.48L1216.74,154.57L1205.58,80.99L1194.42,87.55L1183.26,162.69L1172.09,156.03L1160.93,140.72L1149.77,147.24L1138.6,136.18L1127.44,79.29L1116.28,168.25L1105.12,134.48L1093.95,143.65L1082.79,189.53L1071.63,155.36L1060.47,130.22L1049.3,129.1L1038.14,76.87L1026.98,152.07L1015.81,158.18L1004.65,134.3L993.49,134.72L982.33,135.93L971.16,183.56L960,159.53L948.84,141.4L937.67,86.39L926.51,160.93L915.35,134.32L904.19,157.65L893.02,125.06L881.86,162.88L870.7,78.64L859.53,156.9L848.37,117.43L837.21,179.47L826.05,153.49L814.88,136.68L803.72,85.55L792.56,151.42L781.4,158.49L770.23,149.5L759.07,151.84L747.91,81.92L736.74,152.76L725.58,145.12L714.42,155.07L703.26,125.32L692.09,141.04L680.93,129.26L669.77,155.76L658.6,141.03L647.44,156.2L636.28,154.09L625.12,89.49L613.95,156.92L602.79,79.14L591.63,132.73L580.47,158.49L569.3,83.23L558.14,125.89L546.98,154.66L535.81,72.43L524.65,154.53L513.49,146.9L502.33,152.76L491.16,111.93L480,169.02L468.84,128.6L457.67,161.56L446.51,170.63L435.35,71.53L424.19,85.33L413.02,136.13L401.86,71.22L390.7,86.12L379.53,125.42L368.37,131.25L357.21,154.06L346.05,89.64L334.88,161.43L323.72,160.11L312.56,155.11L301.4,161.29L290.23,127.59L279.07,156.06L267.91,106.6L256.74,146.03L245.58,173.6L234.42,140.26L223.26,179.69L212.09,130.87L200.93,89.14L189.77,189.68L178.6,154.15L167.44,210.75L156.28,142.81L145.12,133.95L133.95,151.67L122.79,140.78L111.63,154.38L100.47,124.85L89.3,139.54L78.14,150.24L66.98,135.28L55.81,183.96L44.65,128.44L33.49,148.19L22.33,152.44L11.16,116.85L0,166.8Z" style="fill: rgb(240, 240, 240); fill-opacity: 0.5; stroke-width: 0;"/></g></g><g class="errorbars"/><g class="lines"><path class="js-line" d="M0,166.8L11.16,116.85L22.33,152.44L33.49,148.19L44.65,128.44L55.81,183.96L66.98,135.28L78.14,150.24L89.3,139.54L100.47,124.85L111.63,154.38L122.79,140.78L133.95,151.67L145.12,133.95L156.28,142.81L167.44,210.75L178.6,154.15L189.77,189.68L200.93,89.14L212.09,130.87L223.26,179.69L234.42,140.26L245.58,173.6L256.74,146.03L267.91,106.6L279.07,156.06L290.23,127.59L301.4,161.29L312.56,155.11L323.72,160.11L334.88,161.43L346.05,89.64L357.21,154.06L368.37,131.25L379.53,125.42L390.7,86.12L401.86,71.22L413.02,136.13L424.19,85.33L435.35,71.53L446.51,170.63L457.67,161.56L468.84,128.6L480,169.02L491.16,111.93L502.33,152.76L513.49,146.9L524.65,154.53L535.81,72.43L546.98,154.66L558.14,125.89L569.3,83.23L580.47,158.49L591.63,132.73L602.79,79.14L613.95,156.92L625.12,89.49L636.28,154.09L647.44,156.2L658.6,141.03L669.77,155.76L680.93,129.26L692.09,141.04L703.26,125.32L714.42,155.07L725.58,145.12L736.74,152.76L747.91,81.92L759.07,151.84L770.23,149.5L781.4,158.49L792.56,151.42L803.72,85.55L814.88,136.68L826.05,153.49L837.21,179.47L848.37,117.43L859.53,156.9L870.7,78.64L881.86,162.88L893.02,125.06L904.19,157.65L915.35,134.32L926.51,160.93L937.67,86.39L948.84,141.4L960,159.53L971.16,183.56L982.33,135.93L993.49,134.72L1004.65,134.3L1015.81,158.18L1026.98,152.07L1038.14,76.87L1049.3,129.1L1060.47,130.22L1071.63,155.36L1082.79,189.53L1093.95,143.65L1105.12,134.48L1116.28,168.25L1127.44,79.29L1138.6,136.18L1149.77,147.24L1160.93,140.72L1172.09,156.03L1183.26,162.69L1194.42,87.55L1205.58,80.99L1216.74,154.57L1227.91,123.48L1239.07,138.35L1250.23,161.98L1261.4,110.53L1272.56,125.19L1283.72,120.98L1294.88,149.82L1306.05,97.73L1317.21,139.24L1328.37,151.24L1339.53,132.17L1350.7,138.48L1361.86,127.62L1373.02,187.54L1384.19,151.78L1395.35,134.07L1406.51,141.4L1417.67,152.15L1428.84,145.89L1440,129.85" style="vector-effect: non-scaling-stroke; fill: none; stroke: rgb(240, 240, 240); stroke-opacity: 1; stroke-width: 1px; opacity: 1;"/></g><g class="points"/><g class="text"/></g><g class="trace scatter trace54a2a5" style="stroke-miterlimit: 2;"><g class="fills"/><g class="errorbars"/><g class="lines"><path class="js-line" d="M0,139.38L11.16,59.16L22.33,127.13L33.49,107.92L44.65,75.35L55.81,157.95L66.98,106.06L78.14,122.84L89.3,102.69L100.47,67.22L111.63,127.35L122.79,111.9L133.95,124.39L145.12,82.15L156.28,113.01L167.44,176.91L178.6,127.3L189.77,155.79L200.93,54.86L212.09,81.81L223.26,113.27L234.42,88.84L245.58,119.5L256.74,100.52L267.91,46.88L279.07,129.76L290.23,89.42L301.4,136.07L312.56,125.51L323.72,136.23L334.88,134.17L346.05,55.81L357.21,127.2L368.37,101.21L379.53,96.04L390.7,29.77L401.86,31.76L413.02,106.35L424.19,28.48L435.35,32.27L446.51,144.45L457.67,134.29L468.84,101.5L480,112.83L491.16,75.24L502.33,127.78L513.49,101.07L524.65,127.2L535.81,18.99L546.98,128.21L558.14,98.49L569.3,46.01L580.47,116.48L591.63,93.41L602.79,22.61L613.95,131.06L625.12,56.13L636.28,126.37L647.44,127.93L658.6,112.35L669.77,129.77L680.93,100.57L692.09,112.75L703.26,96.69L714.42,125.65L725.58,116.43L736.74,127.28L747.91,24.3L759.07,124.19L770.23,120.24L781.4,131.03L792.56,127.36L803.72,37.05L814.88,100.78L826.05,120.82L837.21,150.02L848.37,64.63L859.53,114.85L870.7,42.11L881.86,139.03L893.02,95.03L904.19,126.97L915.35,92.33L926.51,133.27L937.67,49.39L948.84,111.66L960,131.91L971.16,119.18L982.33,74.66L993.49,106.06L1004.65,106.28L1015.81,130.06L1026.98,125.93L1038.14,37.09L1049.3,100.21L1060.47,98.92L1071.63,131.11L1082.79,133.55L1093.95,115.24L1105.12,84.41L1116.28,144.25L1127.44,42.8L1138.6,86.92L1149.77,114.85L1160.93,110.76L1172.09,130.26L1183.26,135.32L1194.42,50.81L1205.58,22.44L1216.74,126.13L1227.91,66.35L1239.07,110.49L1250.23,134.63L1261.4,51.04L1272.56,96.29L1283.72,87.2L1294.88,106.03L1306.05,63.49L1317.21,78.18L1328.37,125.17L1339.53,72.18L1350.7,107.19L1361.86,97.81L1373.02,127.75L1384.19,124.64L1395.35,105.91L1406.51,111.72L1417.67,124.74L1428.84,117.5L1440,102.04" style="vector-effect: non-scaling-stroke; fill: none; stroke: rgb(240, 240, 240); stroke-opacity: 1; stroke-width: 1px; opacity: 1;"/></g><g class="points"/><g class="text"/></g><g class="trace scatter tracecc019f" style="stroke-miterlimit: 2;"><g class="fills"><g><path class="js-fill" d="M0,143.57L11.16,67L22.33,130.46L33.49,113.75L44.65,82.77L55.81,162.44L66.98,109.5L78.14,126.47L89.3,107.62L100.47,75.32L111.63,131.05L122.79,115.47L133.95,128.05L145.12,89.53L156.28,116.81L167.44,183.69L178.6,130.97L189.77,161.84L200.93,57.65L212.09,88.57L223.26,124.72L234.42,96.36L245.58,128.58L256.74,107.2L267.91,54.74L279.07,133.39L290.23,94.18L301.4,139.69L312.56,129.69L323.72,139.57L334.88,138.15L346.05,58.54L357.21,130.86L368.37,104.67L379.53,99.19L390.7,36.34L401.86,34.86L413.02,109.92L424.19,35.11L435.35,35.34L446.51,148.54L457.67,138.28L468.84,104.35L480,122.14L491.16,79.22L502.33,131.07L513.49,107.83L524.65,130.96L535.81,24.59L546.98,131.82L558.14,101.3L569.3,49.11L580.47,122.96L591.63,98.55L602.79,28.98L613.95,134.64L625.12,58.77L636.28,130.19L647.44,131.91L658.6,115.89L669.77,133.34L680.93,103.72L692.09,116.22L703.26,99.7L714.42,129.8L725.58,120.11L736.74,130.66L747.91,30.95L759.07,127.91L770.23,124.17L781.4,134.95L792.56,130.43L803.72,42.22L814.88,105.45L826.05,125.49L837.21,154.97L848.37,71.63L859.53,121.28L870.7,44.94L881.86,142.44L893.02,98.28L904.19,131.43L915.35,97.99L926.51,137.3L937.67,52.56L948.84,115.4L960,135.89L971.16,130.4L982.33,83.77L993.49,109.38L1004.65,109.49L1015.81,134.08L1026.98,129.4L1038.14,40.43L1049.3,103.39L1060.47,102.56L1071.63,134.36L1082.79,143.5L1093.95,118.83L1105.12,91.5L1116.28,147.87L1127.44,45.65L1138.6,93.93L1149.77,119.26L1160.93,114.52L1172.09,133.8L1183.26,139.36L1194.42,53.98L1205.58,29.22L1216.74,130.09L1227.91,74.31L1239.07,113.8L1250.23,138.65L1261.4,58.98L1272.56,99.35L1283.72,90.97L1294.88,112.53L1306.05,66.56L1317.21,87.35L1328.37,128.6L1339.53,80.93L1350.7,111.1L1361.86,101.1L1373.02,138.31L1384.19,128.27L1395.35,109.13L1406.51,115.45L1417.67,128.43L1428.84,121.16L1440,105.06L1440,122.39L1428.84,139.33L1417.67,146.1L1406.51,134.39L1395.35,126.82L1384.19,145.76L1373.02,179.11L1361.86,119.75L1350.7,131.06L1339.53,120.34L1328.37,145.33L1317.21,127.69L1306.05,87.4L1294.88,141.34L1283.72,112.14L1272.56,117.29L1261.4,97.45L1250.23,156.56L1239.07,131.4L1227.91,111.53L1216.74,148.54L1205.58,66.23L1194.42,76.25L1183.26,157.3L1172.09,150.46L1160.93,133.63L1149.77,140.21L1138.6,126.11L1127.44,67.52L1116.28,163.66L1105.12,124.19L1093.95,136.96L1082.79,181.76L1071.63,149.96L1060.47,122.29L1049.3,121.43L1038.14,64.48L1026.98,146.2L1015.81,152.41L1004.65,127.09L993.49,127.44L982.33,124.16L971.16,174.24L960,153.91L948.84,134.37L937.67,74.98L926.51,155.39L915.35,125.14L904.19,151.49L893.02,116.99L881.86,157.98L870.7,66.81L859.53,149.1L848.37,105.71L837.21,174.8L826.05,146.8L814.88,128.51L803.72,72.48L792.56,145.8L781.4,152.83L770.23,143.04L759.07,145.75L747.91,67.35L736.74,147.03L725.58,138.48L714.42,148.93L703.26,117.46L692.09,134.19L680.93,121.64L669.77,150.14L658.6,134.13L647.44,150.29L636.28,148.13L625.12,78.77L613.95,151.39L602.79,64.54L591.63,123.83L580.47,150.79L569.3,71.59L558.14,118.24L546.98,148.91L535.81,57.86L524.65,148.65L513.49,137.96L502.33,147.1L491.16,102.12L480,159.98L468.84,121.16L457.67,156.12L446.51,165.88L435.35,58.89L424.19,71.08L413.02,128.77L401.86,58.54L390.7,71.98L379.53,117.46L368.37,123.57L357.21,148.22L346.05,78.87L334.88,155.98L323.72,155.05L312.56,148.95L301.4,156.12L290.23,118.54L279.07,150.42L267.91,93.25L256.74,137.08L245.58,165.12L234.42,130.13L223.26,169.85L212.09,120.47L200.93,78.28L189.77,185L178.6,148.32L167.44,207.33L156.28,135.87L145.12,123.38L133.95,145.62L122.79,133.84L111.63,148.54L100.47,112.91L89.3,131.4L78.14,144.08L66.98,127.95L55.81,180.05L44.65,117.35L33.49,140.11L22.33,146.71L11.16,104.4L0,161.66Z" style="fill: rgb(232, 220, 194); fill-opacity: 0.5; stroke-width: 0;"/></g></g><g class="errorbars"/><g class="lines"><path class="js-line" d="M0,161.66L11.16,104.4L22.33,146.71L33.49,140.11L44.65,117.35L55.81,180.05L66.98,127.95L78.14,144.08L89.3,131.4L100.47,112.91L111.63,148.54L122.79,133.84L133.95,145.62L145.12,123.38L156.28,135.87L167.44,207.33L178.6,148.32L189.77,185L200.93,78.28L212.09,120.47L223.26,169.85L234.42,130.13L245.58,165.12L256.74,137.08L267.91,93.25L279.07,150.42L290.23,118.54L301.4,156.12L312.56,148.95L323.72,155.05L334.88,155.98L346.05,78.87L357.21,148.22L368.37,123.57L379.53,117.46L390.7,71.98L401.86,58.54L413.02,128.77L424.19,71.08L435.35,58.89L446.51,165.88L457.67,156.12L468.84,121.16L480,159.98L491.16,102.12L502.33,147.1L513.49,137.96L524.65,148.65L535.81,57.86L546.98,148.91L558.14,118.24L569.3,71.59L580.47,150.79L591.63,123.83L602.79,64.54L613.95,151.39L625.12,78.77L636.28,148.13L647.44,150.29L658.6,134.13L669.77,150.14L680.93,121.64L692.09,134.19L703.26,117.46L714.42,148.93L725.58,138.48L736.74,147.03L747.91,67.35L759.07,145.75L770.23,143.04L781.4,152.83L792.56,145.8L803.72,72.48L814.88,128.51L826.05,146.8L837.21,174.8L848.37,105.71L859.53,149.1L870.7,66.81L881.86,157.98L893.02,116.99L904.19,151.49L915.35,125.14L926.51,155.39L937.67,74.98L948.84,134.37L960,153.91L971.16,174.24L982.33,124.16L993.49,127.44L1004.65,127.09L1015.81,152.41L1026.98,146.2L1038.14,64.48L1049.3,121.43L1060.47,122.29L1071.63,149.96L1082.79,181.76L1093.95,136.96L1105.12,124.19L1116.28,163.66L1127.44,67.52L1138.6,126.11L1149.77,140.21L1160.93,133.63L1172.09,150.46L1183.26,157.3L1194.42,76.25L1205.58,66.23L1216.74,148.54L1227.91,111.53L1239.07,131.4L1250.23,156.56L1261.4,97.45L1272.56,117.29L1283.72,112.14L1294.88,141.34L1306.05,87.4L1317.21,127.69L1328.37,145.33L1339.53,120.34L1350.7,131.06L1361.86,119.75L1373.02,179.11L1384.19,145.76L1395.35,126.82L1406.51,134.39L1417.67,146.1L1428.84,139.33L1440,122.39" style="vector-effect: non-scaling-stroke; fill: none; stroke: rgb(232, 220, 194); stroke-opacity: 1; stroke-width: 1px; opacity: 1;"/></g><g class="points"/><g class="text"/></g><g class="trace scatter trace431fab" style="stroke-miterlimit: 2;"><g class="fills"/><g class="errorbars"/><g class="lines"><path class="js-line" d="M0,143.57L11.16,67L22.33,130.46L33.49,113.75L44.65,82.77L55.81,162.44L66.98,109.5L78.14,126.47L89.3,107.62L100.47,75.32L111.63,131.05L122.79,115.47L133.95,128.05L145.12,89.53L156.28,116.81L167.44,183.69L178.6,130.97L189.77,161.84L200.93,57.65L212.09,88.57L223.26,124.72L234.42,96.36L245.58,128.58L256.74,107.2L267.91,54.74L279.07,133.39L290.23,94.18L301.4,139.69L312.56,129.69L323.72,139.57L334.88,138.15L346.05,58.54L357.21,130.86L368.37,104.67L379.53,99.19L390.7,36.34L401.86,34.86L413.02,109.92L424.19,35.11L435.35,35.34L446.51,148.54L457.67,138.28L468.84,104.35L480,122.14L491.16,79.22L502.33,131.07L513.49,107.83L524.65,130.96L535.81,24.59L546.98,131.82L558.14,101.3L569.3,49.11L580.47,122.96L591.63,98.55L602.79,28.98L613.95,134.64L625.12,58.77L636.28,130.19L647.44,131.91L658.6,115.89L669.77,133.34L680.93,103.72L692.09,116.22L703.26,99.7L714.42,129.8L725.58,120.11L736.74,130.66L747.91,30.95L759.07,127.91L770.23,124.17L781.4,134.95L792.56,130.43L803.72,42.22L814.88,105.45L826.05,125.49L837.21,154.97L848.37,71.63L859.53,121.28L870.7,44.94L881.86,142.44L893.02,98.28L904.19,131.43L915.35,97.99L926.51,137.3L937.67,52.56L948.84,115.4L960,135.89L971.16,130.4L982.33,83.77L993.49,109.38L1004.65,109.49L1015.81,134.08L1026.98,129.4L1038.14,40.43L1049.3,103.39L1060.47,102.56L1071.63,134.36L1082.79,143.5L1093.95,118.83L1105.12,91.5L1116.28,147.87L1127.44,45.65L1138.6,93.93L1149.77,119.26L1160.93,114.52L1172.09,133.8L1183.26,139.36L1194.42,53.98L1205.58,29.22L1216.74,130.09L1227.91,74.31L1239.07,113.8L1250.23,138.65L1261.4,58.98L1272.56,99.35L1283.72,90.97L1294.88,112.53L1306.05,66.56L1317.21,87.35L1328.37,128.6L1339.53,80.93L1350.7,111.1L1361.86,101.1L1373.02,138.31L1384.19,128.27L1395.35,109.13L1406.51,115.45L1417.67,128.43L1428.84,121.16L1440,105.06" style="vector-effect: non-scaling-stroke; fill: none; stroke: rgb(232, 220, 194); stroke-opacity: 1; stroke-width: 1px; opacity: 1;"/></g><g class="points"/><g class="text"/></g><g class="trace scatter trace4e8338" style="stroke-miterlimit: 2;"><g class="fills"><g><path class="js-fill" d="M0,146.53L11.16,72.93L22.33,132.83L33.49,118.01L44.65,88.33L55.81,165.64L66.98,112.03L78.14,129.06L89.3,111.27L100.47,81.41L111.63,133.69L122.79,118.06L133.95,130.66L145.12,95.03L156.28,119.57L167.44,188.51L178.6,133.57L189.77,166.25L200.93,59.87L212.09,93.73L223.26,133.25L234.42,101.95L245.58,135.32L256.74,112.12L267.91,60.72L279.07,135.96L290.23,97.74L301.4,142.23L312.56,132.68L323.72,141.91L334.88,140.96L346.05,60.71L357.21,133.47L368.37,107.22L379.53,101.52L390.7,41.45L401.86,37.39L413.02,112.54L424.19,40.26L435.35,37.85L446.51,151.44L457.67,141.1L468.84,106.45L480,129.03L491.16,82.24L502.33,133.4L513.49,112.81L524.65,133.64L535.81,29.02L546.98,134.38L558.14,103.38L569.3,51.6L580.47,127.67L591.63,102.36L602.79,33.95L613.95,137.18L625.12,60.88L636.28,132.91L647.44,134.75L658.6,118.47L669.77,135.86L680.93,106.05L692.09,118.74L703.26,101.93L714.42,132.77L725.58,122.78L736.74,133.05L747.91,36.14L759.07,130.58L770.23,127L781.4,137.72L792.56,132.64L803.72,46.27L814.88,108.89L826.05,128.86L837.21,158.52L848.37,76.91L859.53,125.97L870.7,47.24L881.86,144.87L893.02,100.69L904.19,134.62L915.35,102.2L926.51,140.17L937.67,55.09L948.84,118.12L960,138.71L971.16,138.73L982.33,90.59L993.49,111.82L1004.65,111.83L1015.81,136.95L1026.98,131.87L1038.14,43.13L1049.3,105.73L1060.47,105.25L1071.63,136.65L1082.79,150.82L1093.95,121.42L1105.12,96.79L1116.28,150.43L1127.44,47.96L1138.6,99.14L1149.77,122.46L1160.93,117.25L1172.09,136.3L1183.26,142.22L1194.42,56.5L1205.58,34.51L1216.74,132.91L1227.91,80.31L1239.07,116.21L1250.23,141.49L1261.4,65.02L1272.56,101.61L1283.72,93.8L1294.88,117.3L1306.05,68.96L1317.21,94.24L1328.37,131.04L1339.53,87.52L1350.7,113.97L1361.86,103.54L1373.02,146.09L1384.19,130.87L1395.35,111.49L1406.51,118.17L1417.67,131.07L1428.84,123.79L1440,107.28L1440,117.61L1428.84,134.88L1417.67,141.93L1406.51,129.67L1395.35,122.1L1384.19,141.6L1373.02,171.86L1361.86,114.67L1350.7,126.07L1339.53,111.73L1328.37,141.29L1317.21,119.13L1306.05,81.05L1294.88,135.14L1283.72,106.42L1272.56,112.27L1261.4,88.38L1250.23,152.63L1239.07,126.82L1227.91,103.06L1216.74,144.3L1205.58,56.55L1194.42,69.34L1183.26,153.39L1172.09,146.58L1160.93,128.86L1149.77,135.31L1138.6,118.91L1127.44,60.44L1116.28,160.28L1105.12,116.85L1093.95,132.44L1082.79,175.01L1071.63,146.24L1060.47,117.1L1049.3,116.51L1038.14,56.95L1026.98,142.17L1015.81,148.3L1004.65,122.39L993.49,122.67L982.33,115.51L971.16,166.33L960,149.89L948.84,129.65L937.67,68.01L926.51,151.4L915.35,118.77L904.19,147.06L893.02,111.83L881.86,154.47L870.7,59.71L859.53,143.28L848.37,97.62L837.21,171.01L826.05,142.02L814.88,122.93L803.72,64.11L792.56,141.99L781.4,148.8L770.23,138.58L759.07,141.54L747.91,57.8L736.74,143.1L725.58,133.97L714.42,144.58L703.26,112.47L692.09,129.63L680.93,116.74L669.77,146.23L658.6,129.52L647.44,146.11L636.28,143.97L625.12,72.32L613.95,147.52L602.79,55.06L591.63,117.74L580.47,145.02L569.3,64.52L558.14,113.41L546.98,144.91L535.81,48.58L524.65,144.54L513.49,131.44L502.33,143.23L491.16,95.83L480,152.72L468.84,116.43L457.67,152.2L446.51,162.28L435.35,51.28L424.19,61.7L413.02,123.92L401.86,50.9L390.7,62.69L379.53,112.39L368.37,118.55L357.21,144.15L346.05,72.37L334.88,152.05L323.72,151.5L312.56,144.58L301.4,152.43L290.23,112.45L279.07,146.47L267.91,84.06L256.74,130.58L245.58,158.21L234.42,122.78L223.26,161.59L212.09,113.1L200.93,71.71L189.77,180.89L178.6,144.25L167.44,203.75L156.28,131.17L145.12,115.82L133.95,141.45L122.79,129.2L111.63,144.46L100.47,104.42L89.3,125.76L78.14,139.86L66.98,123.14L55.81,176.77L44.65,109.5L33.49,134.29L22.33,142.79L11.16,95.71L0,157.83Z" style="fill: rgb(224, 199, 147); fill-opacity: 0.5; stroke-width: 0;"/></g></g><g class="errorbars"/><g class="lines"><path class="js-line" d="M0,157.83L11.16,95.71L22.33,142.79L33.49,134.29L44.65,109.5L55.81,176.77L66.98,123.14L78.14,139.86L89.3,125.76L100.47,104.42L111.63,144.46L122.79,129.2L133.95,141.45L145.12,115.82L156.28,131.17L167.44,203.75L178.6,144.25L189.77,180.89L200.93,71.71L212.09,113.1L223.26,161.59L234.42,122.78L245.58,158.21L256.74,130.58L267.91,84.06L279.07,146.47L290.23,112.45L301.4,152.43L312.56,144.58L323.72,151.5L334.88,152.05L346.05,72.37L357.21,144.15L368.37,118.55L379.53,112.39L390.7,62.69L401.86,50.9L413.02,123.92L424.19,61.7L435.35,51.28L446.51,162.28L457.67,152.2L468.84,116.43L480,152.72L491.16,95.83L502.33,143.23L513.49,131.44L524.65,144.54L535.81,48.58L546.98,144.91L558.14,113.41L569.3,64.52L580.47,145.02L591.63,117.74L602.79,55.06L613.95,147.52L625.12,72.32L636.28,143.97L647.44,146.11L658.6,129.52L669.77,146.23L680.93,116.74L692.09,129.63L703.26,112.47L714.42,144.58L725.58,133.97L736.74,143.1L747.91,57.8L759.07,141.54L770.23,138.58L781.4,148.8L792.56,141.99L803.72,64.11L814.88,122.93L826.05,142.02L837.21,171.01L848.37,97.62L859.53,143.28L870.7,59.71L881.86,154.47L893.02,111.83L904.19,147.06L915.35,118.77L926.51,151.4L937.67,68.01L948.84,129.65L960,149.89L971.16,166.33L982.33,115.51L993.49,122.67L1004.65,122.39L1015.81,148.3L1026.98,142.17L1038.14,56.95L1049.3,116.51L1060.47,117.1L1071.63,146.24L1082.79,175.01L1093.95,132.44L1105.12,116.85L1116.28,160.28L1127.44,60.44L1138.6,118.91L1149.77,135.31L1160.93,128.86L1172.09,146.58L1183.26,153.39L1194.42,69.34L1205.58,56.55L1216.74,144.3L1227.91,103.06L1239.07,126.82L1250.23,152.63L1261.4,88.38L1272.56,112.27L1283.72,106.42L1294.88,135.14L1306.05,81.05L1317.21,119.13L1328.37,141.29L1339.53,111.73L1350.7,126.07L1361.86,114.67L1373.02,171.86L1384.19,141.6L1395.35,122.1L1406.51,129.67L1417.67,141.93L1428.84,134.88L1440,117.61" style="vector-effect: non-scaling-stroke; fill: none; stroke: rgb(224, 199, 147); stroke-opacity: 1; stroke-width: 1px; opacity: 1;"/></g><g class="points"/><g class="text"/></g><g class="trace scatter trace04da6d" style="stroke-miterlimit: 2;"><g class="fills"/><g class="errorbars"/><g class="lines"><path class="js-line" d="M0,146.53L11.16,72.93L22.33,132.83L33.49,118.01L44.65,88.33L55.81,165.64L66.98,112.03L78.14,129.06L89.3,111.27L100.47,81.41L111.63,133.69L122.79,118.06L133.95,130.66L145.12,95.03L156.28,119.57L167.44,188.51L178.6,133.57L189.77,166.25L200.93,59.87L212.09,93.73L223.26,133.25L234.42,101.95L245.58,135.32L256.74,112.12L267.91,60.72L279.07,135.96L290.23,97.74L301.4,142.23L312.56,132.68L323.72,141.91L334.88,140.96L346.05,60.71L357.21,133.47L368.37,107.22L379.53,101.52L390.7,41.45L401.86,37.39L413.02,112.54L424.19,40.26L435.35,37.85L446.51,151.44L457.67,141.1L468.84,106.45L480,129.03L491.16,82.24L502.33,133.4L513.49,112.81L524.65,133.64L535.81,29.02L546.98,134.38L558.14,103.38L569.3,51.6L580.47,127.67L591.63,102.36L602.79,33.95L613.95,137.18L625.12,60.88L636.28,132.91L647.44,134.75L658.6,118.47L669.77,135.86L680.93,106.05L692.09,118.74L703.26,101.93L714.42,132.77L725.58,122.78L736.74,133.05L747.91,36.14L759.07,130.58L770.23,127L781.4,137.72L792.56,132.64L803.72,46.27L814.88,108.89L826.05,128.86L837.21,158.52L848.37,76.91L859.53,125.97L870.7,47.24L881.86,144.87L893.02,100.69L904.19,134.62L915.35,102.2L926.51,140.17L937.67,55.09L948.84,118.12L960,138.71L971.16,138.73L982.33,90.59L993.49,111.82L1004.65,111.83L1015.81,136.95L1026.98,131.87L1038.14,43.13L1049.3,105.73L1060.47,105.25L1071.63,136.65L1082.79,150.82L1093.95,121.42L1105.12,96.79L1116.28,150.43L1127.44,47.96L1138.6,99.14L1149.77,122.46L1160.93,117.25L1172.09,136.3L1183.26,142.22L1194.42,56.5L1205.58,34.51L1216.74,132.91L1227.91,80.31L1239.07,116.21L1250.23,141.49L1261.4,65.02L1272.56,101.61L1283.72,93.8L1294.88,117.3L1306.05,68.96L1317.21,94.24L1328.37,131.04L1339.53,87.52L1350.7,113.97L1361.86,103.54L1373.02,146.09L1384.19,130.87L1395.35,111.49L1406.51,118.17L1417.67,131.07L1428.84,123.79L1440,107.28" style="vector-effect: non-scaling-stroke; fill: none; stroke: rgb(224, 199, 147); stroke-opacity: 1; stroke-width: 1px; opacity: 1;"/></g><g class="points"/><g class="text"/></g><g class="trace scatter trace47a02d" style="stroke-miterlimit: 2;"><g class="fills"><g><path class="js-fill" d="M0,149.09L11.16,77.6L22.33,135.03L33.49,121.51L44.65,92.73L55.81,168.29L66.98,114.38L78.14,131.42L89.3,114.35L100.47,86.17L111.63,136.07L122.79,120.45L133.95,133.03L145.12,99.38L156.28,122.06L167.44,192.23L178.6,135.93L189.77,169.69L200.93,62.12L212.09,97.81L223.26,139.49L234.42,106.34L245.58,140.36L256.74,116.05L267.91,65.45L279.07,138.29L290.23,100.8L301.4,144.52L312.56,135.3L323.72,144.07L334.88,143.44L346.05,62.92L357.21,135.83L368.37,109.59L379.53,103.76L390.7,45.63L401.86,39.89L413.02,114.94L424.19,44.48L435.35,40.33L446.51,153.95L457.67,143.58L468.84,108.52L480,134.2L491.16,84.98L502.33,135.57L513.49,116.78L524.65,136.05L535.81,32.77L546.98,136.71L558.14,105.45L569.3,54.04L580.47,131.44L591.63,105.58L602.79,38.07L613.95,139.48L625.12,63.04L636.28,135.34L647.44,137.26L658.6,120.84L669.77,138.16L680.93,108.27L692.09,121.08L703.26,104.11L714.42,135.36L725.58,125.2L736.74,135.27L747.91,40.38L759.07,132.98L770.23,129.52L781.4,140.19L792.56,134.71L803.72,49.74L814.88,111.85L826.05,131.73L837.21,161.43L848.37,81.16L859.53,129.72L870.7,49.56L881.86,147.07L893.02,102.99L904.19,137.36L915.35,105.68L926.51,142.67L937.67,57.54L948.84,120.59L960,141.2L971.16,144.84L982.33,95.81L993.49,114.12L1004.65,114.06L1015.81,139.46L1026.98,134.14L1038.14,45.72L1049.3,107.97L1060.47,107.72L1071.63,138.78L1082.79,156.25L1093.95,123.8L1105.12,100.99L1116.28,152.7L1127.44,50.28L1138.6,103.29L1149.77,125.23L1160.93,119.73L1172.09,138.58L1183.26,144.72L1194.42,58.94L1205.58,38.83L1216.74,135.42L1227.91,85.01L1239.07,118.47L1250.23,143.98L1261.4,69.78L1272.56,103.81L1283.72,96.38L1294.88,121.12L1306.05,71.31L1317.21,99.48L1328.37,133.29L1339.53,92.58L1350.7,116.55L1361.86,105.86L1373.02,151.84L1384.19,133.22L1395.35,113.72L1406.51,120.63L1417.67,133.45L1428.84,126.2L1440,109.43L1440,114.55L1428.84,131.76L1417.67,138.91L1406.51,126.4L1395.35,119L1384.19,138.62L1373.02,165.29L1361.86,111.38L1350.7,122.62L1339.53,105.02L1328.37,138.43L1317.21,112.3L1306.05,77.26L1294.88,130.25L1283.72,102.68L1272.56,109.08L1261.4,81.69L1250.23,149.63L1227.91,96.64L1216.74,141.16L1205.58,49.97L1194.42,65.27L1183.26,150.38L1172.09,143.75L1160.93,125.55L1149.77,131.72L1138.6,113.39L1127.44,56.39L1116.28,157.68L1105.12,111.24L1093.95,129.32L1082.79,168.87L1071.63,143.59L1060.47,113.64L1049.3,113.32L1038.14,52.52L1026.98,139.31L1015.81,145.21L1004.65,119.31L993.49,119.52L982.33,108.61L971.16,159.25L960,146.85L948.84,126.37L937.67,63.9L926.51,148.37L915.35,114.09L904.19,143.67L893.02,108.51L881.86,151.9L870.7,55.66L859.53,138.59L848.37,91.7L837.21,167.83L826.05,138.41L814.88,118.94L803.72,58.68L792.56,139.38L781.4,145.78L770.23,135.35L759.07,138.49L747.91,51.32L736.74,140.31L725.58,130.81L714.42,141.33L703.26,109.32L692.09,126.52L680.93,113.58L669.77,143.38L658.6,126.37L647.44,143L636.28,140.92L625.12,68.63L613.95,144.68L602.79,48.71L591.63,113.36L580.47,140.33L569.3,60.39L558.14,110.4L546.98,142.01L535.81,42.59L524.65,141.53L513.49,126.32L502.33,140.5L491.16,91.76L480,146.47L468.84,113.45L457.67,149.2L446.51,159.45L435.35,46.91L424.19,55.32L413.02,120.63L401.86,46.51L390.7,56.36L379.53,109.15L368.37,115.24L357.21,141.2L346.05,68.62L334.88,149.05L323.72,148.89L312.56,141.31L301.4,149.67L290.23,108.22L279.07,143.58L267.91,77.34L256.74,125.49L245.58,152.24L234.42,117.01L223.26,154.28L212.09,107.71L200.93,67.91L189.77,177.27L178.6,141.3L167.44,200.17L156.28,127.88L145.12,110.01L133.95,138.45L122.79,126.02L111.63,141.49L100.47,97.95L89.3,121.7L78.14,136.84L66.98,119.92L55.81,174L44.65,103.54L33.49,129.8L22.33,140.02L11.16,89.23L0,154.83Z" style="fill: rgb(216, 179, 101); fill-opacity: 0.5; stroke-width: 0;"/></g></g><g class="errorbars"/><g class="lines"><path class="js-line" d="M0,154.83L11.16,89.23L22.33,140.02L33.49,129.8L44.65,103.54L55.81,174L66.98,119.92L78.14,136.84L89.3,121.7L100.47,97.95L111.63,141.49L122.79,126.02L133.95,138.45L145.12,110.01L156.28,127.88L167.44,200.17L178.6,141.3L189.77,177.27L200.93,67.91L212.09,107.71L223.26,154.28L234.42,117.01L245.58,152.24L256.74,125.49L267.91,77.34L279.07,143.58L290.23,108.22L301.4,149.67L312.56,141.31L323.72,148.89L334.88,149.05L346.05,68.62L357.21,141.2L368.37,115.24L379.53,109.15L390.7,56.36L401.86,46.51L413.02,120.63L424.19,55.32L435.35,46.91L446.51,159.45L457.67,149.2L468.84,113.45L480,146.47L491.16,91.76L502.33,140.5L513.49,126.32L524.65,141.53L535.81,42.59L546.98,142.01L558.14,110.4L569.3,60.39L580.47,140.33L591.63,113.36L602.79,48.71L613.95,144.68L625.12,68.63L636.28,140.92L647.44,143L658.6,126.37L669.77,143.38L680.93,113.58L692.09,126.52L703.26,109.32L714.42,141.33L725.58,130.81L736.74,140.31L747.91,51.32L759.07,138.49L770.23,135.35L781.4,145.78L792.56,139.38L803.72,58.68L814.88,118.94L826.05,138.41L837.21,167.83L848.37,91.7L859.53,138.59L870.7,55.66L881.86,151.9L893.02,108.51L904.19,143.67L915.35,114.09L926.51,148.37L937.67,63.9L948.84,126.37L960,146.85L971.16,159.25L982.33,108.61L993.49,119.52L1004.65,119.31L1015.81,145.21L1026.98,139.31L1038.14,52.52L1049.3,113.32L1060.47,113.64L1071.63,143.59L1082.79,168.87L1093.95,129.32L1105.12,111.24L1116.28,157.68L1127.44,56.39L1138.6,113.39L1149.77,131.72L1160.93,125.55L1172.09,143.75L1183.26,150.38L1194.42,65.27L1205.58,49.97L1216.74,141.16L1227.91,96.64L1250.23,149.63L1261.4,81.69L1272.56,109.08L1283.72,102.68L1294.88,130.25L1306.05,77.26L1317.21,112.3L1328.37,138.43L1339.53,105.02L1350.7,122.62L1361.86,111.38L1373.02,165.29L1384.19,138.62L1395.35,119L1406.51,126.4L1417.67,138.91L1428.84,131.76L1440,114.55" style="vector-effect: non-scaling-stroke; fill: none; stroke: rgb(216, 179, 101); stroke-opacity: 1; stroke-width: 1px; opacity: 1;"/></g><g class="points"/><g class="text"/></g><g class="trace scatter tracebb0c42" style="stroke-miterlimit: 2;"><g class="fills"/><g class="errorbars"/><g class="lines"><path class="js-line" d="M0,149.09L11.16,77.6L22.33,135.03L33.49,121.51L44.65,92.73L55.81,168.29L66.98,114.38L78.14,131.42L89.3,114.35L100.47,86.17L111.63,136.07L122.79,120.45L133.95,133.03L145.12,99.38L156.28,122.06L167.44,192.23L178.6,135.93L189.77,169.69L200.93,62.12L212.09,97.81L223.26,139.49L234.42,106.34L245.58,140.36L256.74,116.05L267.91,65.45L279.07,138.29L290.23,100.8L301.4,144.52L312.56,135.3L323.72,144.07L334.88,143.44L346.05,62.92L357.21,135.83L368.37,109.59L379.53,103.76L390.7,45.63L401.86,39.89L413.02,114.94L424.19,44.48L435.35,40.33L446.51,153.95L457.67,143.58L468.84,108.52L480,134.2L491.16,84.98L502.33,135.57L513.49,116.78L524.65,136.05L535.81,32.77L546.98,136.71L558.14,105.45L569.3,54.04L580.47,131.44L591.63,105.58L602.79,38.07L613.95,139.48L625.12,63.04L636.28,135.34L647.44,137.26L658.6,120.84L669.77,138.16L680.93,108.27L692.09,121.08L703.26,104.11L714.42,135.36L725.58,125.2L736.74,135.27L747.91,40.38L759.07,132.98L770.23,129.52L781.4,140.19L792.56,134.71L803.72,49.74L814.88,111.85L826.05,131.73L837.21,161.43L848.37,81.16L859.53,129.72L870.7,49.56L881.86,147.07L893.02,102.99L904.19,137.36L915.35,105.68L926.51,142.67L937.67,57.54L948.84,120.59L960,141.2L971.16,144.84L982.33,95.81L993.49,114.12L1004.65,114.06L1015.81,139.46L1026.98,134.14L1038.14,45.72L1049.3,107.97L1060.47,107.72L1071.63,138.78L1082.79,156.25L1093.95,123.8L1105.12,100.99L1116.28,152.7L1127.44,50.28L1138.6,103.29L1149.77,125.23L1160.93,119.73L1172.09,138.58L1183.26,144.72L1194.42,58.94L1205.58,38.83L1216.74,135.42L1227.91,85.01L1239.07,118.47L1250.23,143.98L1261.4,69.78L1272.56,103.81L1283.72,96.38L1294.88,121.12L1306.05,71.31L1317.21,99.48L1328.37,133.29L1339.53,92.58L1350.7,116.55L1361.86,105.86L1373.02,151.84L1384.19,133.22L1395.35,113.72L1406.51,120.63L1417.67,133.45L1428.84,126.2L1440,109.43" style="vector-effect: non-scaling-stroke; fill: none; stroke: rgb(216, 179, 101); stroke-opacity: 1; stroke-width: 1px; opacity: 1;"/></g><g class="points"/><g class="text"/></g><g class="trace scatter traced393a5" style="stroke-miterlimit: 2; opacity: 1;"><g class="fills"/><g class="errorbars"/><g class="lines"><path class="js-line" d="M0,152.48L11.16,84.55L22.33,138.13L33.49,126.44L44.65,99.16L55.81,171.4L66.98,117.88L78.14,134.78L89.3,118.75L100.47,93.15L111.63,139.39L122.79,123.94L133.95,136.37L145.12,105.68L156.28,125.67L167.44,196.21L178.6,139.23L189.77,173.68L200.93,66.05L212.09,103.51L223.26,147.46L234.42,112.62L245.58,146.89L256.74,121.62L267.91,72.61L279.07,141.54L290.23,105.35L301.4,147.65L312.56,138.94L323.72,147.03L334.88,146.82L346.05,66.8L357.21,139.13L368.37,113.18L379.53,107.25L390.7,52.28L401.86,44.39L413.02,118.53L424.19,51.2L435.35,44.81L446.51,157.11L457.67,146.96L468.84,111.74L480,141.04L491.16,89.31L502.33,138.63L513.49,122.4L524.65,139.41L535.81,39.01L546.98,139.96L558.14,108.69L569.3,58.31L580.47,136.63L591.63,110.33L602.79,44.72L613.95,142.67L625.12,66.86L636.28,138.75L647.44,140.75L658.6,124.3L669.77,141.36L680.93,111.69L692.09,124.49L703.26,107.5L714.42,138.99L725.58,128.68L736.74,138.39L747.91,47.18L759.07,136.37L770.23,133.1L781.4,143.58L792.56,137.58L803.72,55.42L814.88,116.2L826.05,135.74L837.21,164.97L848.37,87.51L859.53,134.91L870.7,53.73L881.86,149.92L893.02,106.55L904.19,141.15L915.35,110.76L926.51,146.09L937.67,61.8L948.84,124.19L960,144.62L971.16,152.59L982.33,103.29L993.49,117.55L1004.65,117.41L1015.81,142.93L1026.98,137.34L1038.14,50.28L1049.3,111.42L1060.47,111.47L1071.63,141.76L1082.79,163.02L1093.95,127.24L1105.12,107.08L1116.28,155.63L1127.44,54.45L1138.6,109.29L1149.77,129.18L1160.93,123.36L1172.09,141.76L1183.26,148.12L1194.42,63.17L1205.58,45.74L1216.74,138.92L1227.91,91.93L1239.07,121.82L1250.23,147.38L1261.4,76.93L1272.56,107.23L1283.72,100.39L1294.88,126.5L1306.05,75.27L1317.21,106.88L1328.37,136.48L1339.53,99.82L1350.7,120.32L1361.86,109.4L1373.02,159.07L1384.19,136.55L1395.35,117.1L1406.51,124.22L1417.67,136.81L1428.84,129.65L1440,112.74" style="vector-effect: non-scaling-stroke; fill: none; stroke: rgb(216, 179, 101); stroke-opacity: 1; stroke-dasharray: 3px, 3px; stroke-width: 2px; opacity: 1;"/></g><g class="points"/><g class="text"/></g><g class="trace scatter trace681269" style="stroke-miterlimit: 2; opacity: 1;"><g class="fills"/><g class="errorbars"/><g class="lines"><path class="js-line" d="M0,160.75L11.16,153.21L22.33,133.36L33.49,55.08L44.65,82.67L55.81,172.68L66.98,131.19L78.14,142.04L89.3,82.38L100.47,77.02L111.63,141.32L122.79,121.72L133.95,137.8L145.12,151.59L156.28,119.5L167.44,173.21L178.6,138.06L189.77,149.43L200.93,73.68L212.09,147.78L223.26,152.85L234.42,81.76L245.58,154.46L256.74,59.5L267.91,97.51L279.07,131.26L290.23,126.4L301.4,126.58L312.56,134.28L323.72,136.1L334.88,150.97L346.05,58.63L357.21,128.85L368.37,103.64L379.53,111.42L390.7,68.92L401.86,51.69L413.02,121.24L424.19,112.01L435.35,37.67L446.51,154.63L457.67,129.58L468.84,115.39L480,203.17L491.16,61.06L502.33,138.71L513.49,126.07L524.65,127.99L535.81,78.84L546.98,146.93L558.14,119.02L569.3,59.42L580.47,44.57L591.63,99.04L602.79,32.74L613.95,139.36L625.12,56.47L636.28,147.06L647.44,149.28L658.6,125.59L669.77,146.8L680.93,122.9L692.09,112.34L703.26,111.42L714.42,142.63L725.58,119.59L736.74,136.36L747.91,37.57L759.07,131.41L770.23,137.74L781.4,148.76L792.56,133.48L803.72,41.32L814.88,106.7L826.05,135.97L837.21,143.28L848.37,119.16L859.53,94.17L870.7,67.16L881.86,155.27L893.02,92.15L904.19,128.24L915.35,103.46L926.51,129.06L937.67,46.01L948.84,129.19L960,131.41L971.16,124.21L982.33,89.58L993.49,119.57L1004.65,112.95L1015.81,147.06L1026.98,136.89L1038.14,58.17L1049.3,124.26L1060.47,120.78L1071.63,140.36L1082.79,206.62L1093.95,114.94L1105.12,103.86L1116.28,165.4L1127.44,61.74L1138.6,51.23L1149.77,126.64L1160.93,138.54L1172.09,129.19L1183.26,130.1L1194.42,66.78L1205.58,-7.78L1216.74,148.57L1227.91,76.03L1239.07,113.58L1250.23,125.93L1261.4,119.88L1272.56,120.53L1283.72,89.65L1294.88,73.72L1306.05,71.52L1317.21,161.72L1328.37,148.76L1339.53,80.81L1350.7,124.73L1361.86,101.88L1373.02,124.54L1384.19,134.36L1395.35,114.82L1406.51,133.82L1417.67,122.3L1428.84,115.2L1440,120.33" style="vector-effect: non-scaling-stroke; fill: none; stroke: rgb(0, 60, 48); stroke-opacity: 1; stroke-width: 0.5px; opacity: 1;"/></g><g class="points"/><g class="text"/></g></g></g><g class="overplot"/><path class="xlines-above crisp" d="M0,0" style="fill: none;"/><path class="ylines-above crisp" d="M0,0" style="fill: none;"/><g class="overlines-above"/><g class="xaxislayer-above"/><g class="yaxislayer-above"><g class="ytick"><text text-anchor="end" x="59" y="4.199999999999999" transform="translate(0,220.11)" style="font-family: Raleway, 'PT Sans Narrow', Overpass, Arial; font-size: 12px; fill: rgb(42, 63, 95); fill-opacity: 1; white-space: pre; opacity: 1;">80</text></g><g class="ytick"><text text-anchor="end" x="59" y="4.199999999999999" style="font-family: Raleway, 'PT Sans Narrow', Overpass, Arial; font-size: 12px; fill: rgb(42, 63, 95); fill-opacity: 1; white-space: pre; opacity: 1;" transform="translate(0,167.93)">100</text></g><g class="ytick"><text text-anchor="end" x="59" y="4.199999999999999" style="font-family: Raleway, 'PT Sans Narrow', Overpass, Arial; font-size: 12px; fill: rgb(42, 63, 95); fill-opacity: 1; white-space: pre; opacity: 1;" transform="translate(0,115.74)">120</text></g><g class="ytick"><text text-anchor="end" x="59" y="4.199999999999999" style="font-family: Raleway, 'PT Sans Narrow', Overpass, Arial; font-size: 12px; fill: rgb(42, 63, 95); fill-opacity: 1; white-space: pre; opacity: 1;" transform="translate(0,63.56)">140</text></g></g><g class="overaxes-above"/></g><g class="subplot x2y2"><g class="layer-subplot"><g class="shapelayer"/><g class="imagelayer"/></g><g class="minor-gridlayer"><g class="x2"/><g class="y2"/></g><g class="gridlayer"><g class="x2"/><g class="y2"/></g><g class="zerolinelayer"><path class="x2zl zl crisp" transform="translate(60,0)" d="M0,259.0578947368422v66.04736842105261" style="stroke: rgb(255, 255, 255); stroke-opacity: 1; stroke-width: 2px;"/><path class="y2zl zl crisp" transform="translate(0,321.7978947368422)" d="M60,0h1440" style="stroke: rgb(255, 255, 255); stroke-opacity: 1; stroke-width: 2px;"/></g><path class="xlines-below"/><path class="ylines-below"/><g class="overlines-below"/><g class="xaxislayer-below"/><g class="yaxislayer-below"/><g class="overaxes-below"/><g class="plot" transform="translate(60,259.0578947368422)" clip-path="url(#clip405e6fx2y2plot)"><g class="scatterlayer mlayer"><g class="trace scatter tracebe48f2" style="stroke-miterlimit: 2; opacity: 1;"><g class="fills"/><g class="errorbars"/><g class="lines"><path class="js-line" d="M0,62.74L11.16,28.96L22.33,62.74L133.95,62.74L145.12,46.35L156.28,62.74L167.44,62.74L200.93,62.74L212.09,47.03L223.26,62.74L234.42,62.74L413.02,62.74L424.19,37.96L435.35,62.74L446.51,62.74L468.84,62.74L480,31.02L491.16,62.74L502.33,62.74L524.65,62.74L535.81,56.79L546.98,62.74L558.14,62.74L837.21,62.74L848.37,61.14L859.53,62.74L870.7,62.74L1071.63,62.74L1082.79,46.86L1093.95,62.74L1105.12,62.74L1250.23,62.74L1261.4,54.06L1272.56,62.74L1283.72,62.74L1306.05,62.74L1317.21,41.86L1328.37,62.74L1339.53,62.74L1440,62.74" style="vector-effect: non-scaling-stroke; fill: none; stroke: rgb(240, 240, 240); stroke-opacity: 1; stroke-width: 2px; opacity: 1;"/></g><g class="points"/><g class="text"/></g><g class="trace scatter traced9e6b3" style="stroke-miterlimit: 2; opacity: 1;"><g class="fills"/><g class="errorbars"/><g class="lines"><path class="js-line" d="M0,62.74L11.16,17.4L22.33,62.74L55.81,62.74L66.98,59.74L78.14,62.74L89.3,62.74L133.95,62.74L145.12,36.53L156.28,62.74L167.44,62.74L200.93,62.74L212.09,37.38L223.26,62.74L234.42,62.74L256.74,62.74L267.91,58.78L279.07,62.74L290.23,55.44L301.4,62.74L312.56,62.74L413.02,62.74L424.19,24.71L435.35,62.74L446.51,62.74L468.84,62.74L480,22.62L491.16,62.74L502.33,62.74L524.65,62.74L535.81,43.26L546.98,62.74L558.14,62.02L580.47,62.74L591.63,62.74L669.77,62.74L680.93,61.57L692.09,62.74L703.26,62.74L837.21,62.74L848.37,50.24L859.53,62.74L870.7,62.42L904.19,62.74L915.35,62.74L1038.14,62.74L1049.3,60.12L1060.47,62.74L1071.63,62.74L1082.79,39.64L1093.95,62.74L1105.12,62.74L1116.28,61.13L1127.44,62.74L1138.6,62.74L1149.77,62.74L1160.93,58.18L1172.09,62.74L1183.26,62.74L1250.23,62.74L1261.4,41.91L1272.56,59.74L1283.72,62.74L1306.05,62.74L1317.21,31.13L1328.37,59.56L1339.53,62.74L1440,62.74" style="vector-effect: non-scaling-stroke; fill: none; stroke: rgb(232, 220, 194); stroke-opacity: 1; stroke-width: 2px; opacity: 1;"/></g><g class="points"/><g class="text"/></g><g class="trace scatter trace7e1d34" style="stroke-miterlimit: 2; opacity: 1;"><g class="fills"/><g class="errorbars"/><g class="lines"><path class="js-line" d="M0,60.03L11.16,9.33L22.33,62.74L55.81,62.74L66.98,55.27L78.14,60.72L89.3,62.74L133.95,62.74L145.12,29.51L156.28,62.74L167.44,62.74L189.77,62.74L200.93,60.91L212.09,30.53L223.26,62.74L256.74,62.74L267.91,50.24L279.07,62.74L290.23,49.79L301.4,62.74L312.56,62.74L379.53,62.74L390.7,56.95L401.86,62.01L413.02,62.74L424.19,16L435.35,62.74L468.84,62.74L480,15.88L491.16,62.74L502.33,62.74L524.65,62.74L535.81,34.63L546.98,60.87L558.14,57.53L569.3,62.74L580.47,62.74L625.12,62.74L636.28,59.87L647.44,59.8L658.6,62.74L669.77,62.21L680.93,57.02L692.09,62.74L703.26,62.74L837.21,62.74L848.37,42.73L859.53,62.74L870.7,55.83L881.86,62L893.02,62.74L1026.98,62.74L1038.14,61.61L1049.3,55.54L1060.47,59.32L1071.63,62.74L1082.79,33.37L1093.95,62.74L1105.12,62.74L1116.28,57.98L1127.44,61.53L1138.6,62.74L1149.77,62.74L1160.93,53.75L1172.09,62.74L1205.58,62.74L1216.74,58.77L1227.91,62.74L1239.07,62.74L1250.23,62.74L1261.4,33.48L1272.56,55.07L1283.72,62.74L1306.05,62.74L1317.21,23.17L1328.37,55.81L1339.53,62.74L1395.35,62.74L1406.51,58.88L1417.67,62.74L1428.84,62.74L1440,60.22" style="vector-effect: non-scaling-stroke; fill: none; stroke: rgb(224, 199, 147); stroke-opacity: 1; stroke-width: 2px; opacity: 1;"/></g><g class="points"/><g class="text"/></g><g class="trace scatter trace68fbda" style="stroke-miterlimit: 2; opacity: 1;"><g class="fills"/><g class="errorbars"/><g class="lines"><path class="js-line" d="M0,57.24L11.16,3.3L22.33,62.74L55.81,62.74L66.98,52.28L89.3,62.74L100.47,62.74L133.95,62.74L145.12,24.11L156.28,62.74L167.44,62.74L189.77,62.74L200.93,57.38L212.09,25.52L223.26,62.74L234.42,62.74L245.58,60.68L256.74,62.74L267.91,44L279.07,62.74L290.23,45.85L301.4,62.74L312.56,62.74L323.72,62.74L334.88,60.96L346.05,62.74L357.21,62.74L368.37,62.74L379.53,60.64L390.7,51.07L401.86,57.93L413.02,62.17L424.19,10.07L435.35,62.74L446.51,62.74L457.67,62.74L468.84,60.95L480,10.07L491.16,62.74L524.65,62.74L535.81,29.06L546.98,58.17L558.14,54.74L569.3,62.74L580.47,62.74L625.12,62.74L636.28,57.04L647.44,56.91L658.6,62.74L669.77,59.56L680.93,54.09L692.09,62.74L703.26,60.8L736.74,62.74L747.91,62.74L759.07,62.74L770.23,60.53L781.4,59.98L792.56,62.74L837.21,62.74L848.37,37.22L859.53,62.74L870.7,52.06L881.86,59.62L893.02,62.74L937.67,62.74L948.84,60.12L960,62.74L971.16,62.74L1004.65,62.74L1015.81,61.02L1026.98,62.74L1038.14,57.5L1049.3,52.58L1060.47,56.11L1071.63,62.74L1082.79,27.66L1093.95,62.74L1105.12,62.74L1116.28,55.57L1127.44,57.77L1138.6,62.74L1149.77,62.74L1160.93,50.68L1172.09,62.74L1183.26,62.74L1194.42,61.34L1205.58,62.74L1216.74,55.86L1227.91,62.74L1239.07,62.74L1250.23,62.74L1261.4,27.27L1272.56,52.11L1283.72,62.74L1306.05,62.74L1317.21,16.82L1328.37,53.15L1339.53,62.74L1350.7,60.78L1361.86,62.74L1395.35,62.74L1406.51,55.85L1417.67,62.74L1428.84,62.74L1440,57.38" style="vector-effect: non-scaling-stroke; fill: none; stroke: rgb(216, 179, 101); stroke-opacity: 1; stroke-width: 2px; opacity: 1;"/></g><g class="points"/><g class="text"/></g></g></g><g class="overplot"/><path class="xlines-above crisp" d="M0,0" style="fill: none;"/><path class="ylines-above crisp" d="M0,0" style="fill: none;"/><g class="overlines-above"/><g class="xaxislayer-above"/><g class="yaxislayer-above"><g class="y2tick"><text text-anchor="end" x="59" y="4.199999999999999" transform="translate(0,321.7978947368422)" style="font-family: Raleway, 'PT Sans Narrow', Overpass, Arial; font-size: 12px; fill: rgb(42, 63, 95); fill-opacity: 1; white-space: pre; opacity: 1;">0</text></g><g class="y2tick"><text text-anchor="end" x="59" y="4.199999999999999" style="font-family: Raleway, 'PT Sans Narrow', Overpass, Arial; font-size: 12px; fill: rgb(42, 63, 95); fill-opacity: 1; white-space: pre; opacity: 1;" transform="translate(0,297.5578947368422)">10</text></g><g class="y2tick"><text text-anchor="end" x="59" y="4.199999999999999" style="font-family: Raleway, 'PT Sans Narrow', Overpass, Arial; font-size: 12px; fill: rgb(42, 63, 95); fill-opacity: 1; white-space: pre; opacity: 1;" transform="translate(0,273.31789473684216)">20</text></g></g><g class="overaxes-above"/></g><g class="subplot x3y3"><g class="layer-subplot"><g class="shapelayer"/><g class="imagelayer"/></g><g class="minor-gridlayer"><g class="x3"/><g class="y3"/></g><g class="gridlayer"><g class="x3"/><g class="y3"/></g><g class="zerolinelayer"><path class="x3zl zl crisp" transform="translate(60,0)" d="M0,334.0052631578948v66.04736842105261" style="stroke: rgb(255, 255, 255); stroke-opacity: 1; stroke-width: 2px;"/><path class="y3zl zl crisp" transform="translate(0,396.7452631578948)" d="M60,0h1440" style="stroke: rgb(255, 255, 255); stroke-opacity: 1; stroke-width: 2px;"/></g><path class="xlines-below"/><path class="ylines-below"/><g class="overlines-below"/><g class="xaxislayer-below"/><g class="yaxislayer-below"/><g class="overaxes-below"/><g class="plot" transform="translate(60,334.0052631578948)" clip-path="url(#clip405e6fx3y3plot)"><g class="scatterlayer mlayer"><g class="trace scatter trace4f8cf9" style="stroke-miterlimit: 2; opacity: 1;"><g class="fills"/><g class="errorbars"/><g class="lines"><path class="js-line" d="M0,62.74L22.33,62.74L33.49,26.58L44.65,62.74L55.81,62.74L78.14,62.74L89.3,48.85L100.47,62.74L111.63,62.74L156.28,62.74L167.44,60.22L178.6,62.74L189.77,58.39L200.93,62.74L212.09,62.74L223.26,62.74L234.42,57.9L245.58,62.74L256.74,34.67L267.91,62.74L279.07,62.74L290.23,62.74L301.4,56.25L312.56,62.74L323.72,62.66L435.35,62.74L446.51,62.74L457.67,59.52L468.84,62.74L480,62.74L491.16,53.04L502.33,62.74L513.49,62.74L569.3,62.74L580.47,13.54L591.63,62.74L602.79,62.74L826.05,62.74L837.21,58.14L848.37,62.74L859.53,48.59L870.7,62.74L881.86,62.74L893.02,60.77L904.19,62.74L915.35,62.74L926.51,59.86L937.67,60.44L948.84,62.74L971.16,62.74L982.33,62.74L1127.44,62.74L1138.6,38.32L1149.77,62.74L1160.93,62.74L1172.09,62.01L1183.26,59.17L1194.42,62.74L1205.58,42.07L1216.74,62.74L1227.91,62.74L1239.07,62.74L1250.23,56.79L1261.4,62.74L1272.56,62.74L1283.72,62.74L1294.88,40.64L1306.05,62.74L1317.21,62.74L1361.86,62.74L1373.02,60.55L1384.19,62.74L1395.35,62.74L1406.51,62.74L1417.67,61.08L1428.84,61.17L1440,62.74" style="vector-effect: non-scaling-stroke; fill: none; stroke: rgb(240, 240, 240); stroke-opacity: 1; stroke-width: 2px; opacity: 1;"/></g><g class="points"/><g class="text"/></g><g class="trace scatter tracef86ac4" style="stroke-miterlimit: 2; opacity: 1;"><g class="fills"/><g class="errorbars"/><g class="lines"><path class="js-line" d="M0,62.74L22.33,62.74L33.49,22.6L44.65,62.68L55.81,62.74L78.14,62.74L89.3,45.48L100.47,62.74L111.63,62.74L156.28,62.74L167.44,55.57L178.6,62.74L189.77,54.25L200.93,62.74L212.09,62.74L223.26,62.74L234.42,52.76L245.58,62.74L256.74,30.11L267.91,62.74L279.07,61.29L290.23,62.74L301.4,53.77L312.56,62.74L323.72,60.37L334.88,62.74L346.05,62.74L357.21,61.37L368.37,62.05L390.7,62.74L401.86,62.74L446.51,62.74L457.67,56.79L468.84,62.74L480,62.74L491.16,50.32L502.33,62.74L513.49,62.74L524.65,60.71L535.81,62.74L546.98,62.74L569.3,62.74L580.47,9.11L591.63,62.74L602.79,62.74L613.95,62.74L625.12,61.17L636.28,62.74L647.44,62.74L680.93,62.74L692.09,60.09L703.26,62.74L714.42,62.74L736.74,62.74L747.91,62.74L826.05,62.74L837.21,54.75L848.37,62.74L859.53,44.19L870.7,62.74L881.86,62.74L893.02,58.55L904.19,60.57L915.35,62.74L926.51,57.1L937.67,58.27L948.84,62.74L960,59.68L971.16,58.51L982.33,62.74L993.49,62.74L1082.79,62.74L1093.95,60.09L1105.12,62.74L1116.28,62.74L1127.44,62.74L1138.6,33.52L1149.77,62.74L1160.93,62.74L1183.26,56.41L1194.42,62.74L1205.58,37.42L1216.74,62.74L1239.07,62.6L1250.23,54.04L1261.4,62.74L1272.56,62.74L1283.72,61.85L1294.88,36.19L1306.05,62.74L1317.21,62.74L1361.86,62.74L1373.02,53.32L1384.19,62.74L1395.35,62.74L1406.51,62.74L1417.67,58.55L1428.84,58.67L1440,62.74" style="vector-effect: non-scaling-stroke; fill: none; stroke: rgb(232, 220, 194); stroke-opacity: 1; stroke-width: 2px; opacity: 1;"/></g><g class="points"/><g class="text"/></g><g class="trace scatter traceb1519b" style="stroke-miterlimit: 2; opacity: 1;"><g class="fills"/><g class="errorbars"/><g class="lines"><path class="js-line" d="M0,62.74L22.33,62.74L33.49,19.68L44.65,58.87L55.81,62.74L78.14,62.74L89.3,42.98L100.47,59.74L111.63,62.74L156.28,62.69L167.44,52.27L178.6,62.74L189.77,51.23L200.93,62.74L212.09,62.74L223.26,62.74L234.42,48.93L245.58,62.74L256.74,26.74L267.91,62.74L279.07,59.53L290.23,62.74L301.4,52.04L312.56,62.74L323.72,58.77L334.88,62.74L346.05,61.32L357.21,59.58L368.37,60.3L379.53,62.74L390.7,62.74L446.51,62.74L457.67,54.86L468.84,62.74L480,62.74L491.16,48.25L502.33,62.74L513.49,62.74L524.65,58.88L535.81,62.74L546.98,62.74L569.3,62.74L580.47,5.88L591.63,60.47L602.79,61.91L613.95,62.74L625.12,59.73L636.28,62.74L647.44,62.74L680.93,62.74L692.09,58.36L703.26,62.74L714.42,62.74L725.58,60.56L736.74,62.74L792.56,62.74L803.72,59.36L826.05,62.74L837.21,52.32L848.37,62.74L859.53,40.98L870.7,62.74L881.86,62.74L893.02,56.9L904.19,58.38L915.35,62.74L926.51,55.14L937.67,56.54L948.84,62.74L971.16,52.81L982.33,62.06L1004.65,62.74L1015.81,62.74L1082.79,62.74L1093.95,58.31L1105.12,62.74L1116.28,62.74L1127.44,62.74L1138.6,29.96L1149.77,62.74L1160.93,62.74L1172.09,57.88L1183.26,54.45L1194.42,62.74L1205.58,33.8L1216.74,62.74L1227.91,59.82L1239.07,60.95L1250.23,52.1L1261.4,62.74L1272.56,62.74L1283.72,59.91L1294.88,32.93L1306.05,62.74L1317.21,62.74L1328.37,62.74L1339.53,58.15L1350.7,62.74L1361.86,61.6L1373.02,48L1384.19,62.74L1406.51,62.74L1417.67,56.75L1428.84,56.87L1440,62.74" style="vector-effect: non-scaling-stroke; fill: none; stroke: rgb(224, 199, 147); stroke-opacity: 1; stroke-width: 2px; opacity: 1;"/></g><g class="points"/><g class="text"/></g><g class="trace scatter trace7f1daf" style="stroke-miterlimit: 2; opacity: 1;"><g class="fills"/><g class="errorbars"/><g class="lines"><path class="js-line" d="M0,62.74L11.16,62.74L22.33,61.61L33.49,17.29L44.65,55.86L55.81,62.74L66.98,62.74L78.14,62.74L89.3,40.87L100.47,56.48L111.63,62.74L145.12,62.74L156.28,60.99L167.44,49.73L178.6,62.74L189.77,48.88L200.93,62.74L223.26,62.74L234.42,45.93L245.58,62.74L256.74,24.05L267.91,62.74L279.07,57.93L290.23,62.74L301.4,50.47L312.56,62.04L323.72,57.29L334.88,62.74L346.05,59.81L357.21,57.97L368.37,58.67L379.53,62.74L390.7,62.74L424.19,62.74L435.35,60.92L446.51,62.74L457.67,53.17L468.84,62.74L480,62.74L491.16,46.38L502.33,62.74L513.49,62.74L524.65,57.23L535.81,62.74L546.98,62.74L569.3,62.74L580.47,3.3L591.63,58.27L602.79,59.1L613.95,62.67L625.12,58.25L636.28,62.74L647.44,62.74L680.93,62.74L692.09,56.76L703.26,62.74L714.42,62.74L725.58,58.91L736.74,62.74L747.91,60.82L759.07,61.67L770.23,62.74L781.4,62.74L792.56,61.9L803.72,56.98L814.88,59.22L826.05,62.74L837.21,50.33L848.37,62.74L859.53,38.41L870.7,62.74L881.86,62.74L893.02,55.33L904.19,56.51L915.35,61.23L926.51,53.43L937.67,54.86L948.84,62.74L960,56.04L971.16,48.63L982.33,58.48L993.49,62.74L1004.65,61.98L1015.81,62.74L1026.98,62.74L1082.79,62.74L1093.95,56.68L1105.12,62.74L1116.28,62.74L1127.44,62.74L1138.6,27.12L1149.77,62.74L1160.93,62.74L1172.09,56.32L1183.26,52.74L1194.42,62.74L1205.58,30.85L1216.74,62.74L1227.91,56.6L1239.07,59.4L1250.23,50.39L1261.4,62.74L1272.56,62.74L1283.72,58.14L1294.88,30.31L1306.05,62.74L1317.21,62.74L1328.37,62.74L1339.53,54.69L1350.7,62.74L1361.86,60.02L1373.02,44.06L1384.19,62.74L1406.51,62.74L1417.67,55.12L1428.84,55.22L1440,62.74" style="vector-effect: non-scaling-stroke; fill: none; stroke: rgb(216, 179, 101); stroke-opacity: 1; stroke-width: 2px; opacity: 1;"/></g><g class="points"/><g class="text"/></g></g></g><g class="overplot"/><path class="xlines-above crisp" d="M0,0" style="fill: none;"/><path class="ylines-above crisp" d="M0,0" style="fill: none;"/><g class="overlines-above"/><g class="xaxislayer-above"/><g class="yaxislayer-above"><g class="y3tick"><text text-anchor="end" x="59" y="4.199999999999999" transform="translate(0,396.7452631578948)" style="font-family: Raleway, 'PT Sans Narrow', Overpass, Arial; font-size: 12px; fill: rgb(42, 63, 95); fill-opacity: 1; white-space: pre; opacity: 1;">0</text></g><g class="y3tick"><text text-anchor="end" x="59" y="4.199999999999999" style="font-family: Raleway, 'PT Sans Narrow', Overpass, Arial; font-size: 12px; fill: rgb(42, 63, 95); fill-opacity: 1; white-space: pre; opacity: 1;" transform="translate(0,378.89526315789476)">10</text></g><g class="y3tick"><text text-anchor="end" x="59" y="4.199999999999999" style="font-family: Raleway, 'PT Sans Narrow', Overpass, Arial; font-size: 12px; fill: rgb(42, 63, 95); fill-opacity: 1; white-space: pre; opacity: 1;" transform="translate(0,361.0452631578948)">20</text></g><g class="y3tick"><text text-anchor="end" x="59" y="4.199999999999999" style="font-family: Raleway, 'PT Sans Narrow', Overpass, Arial; font-size: 12px; fill: rgb(42, 63, 95); fill-opacity: 1; white-space: pre; opacity: 1;" transform="translate(0,343.1852631578948)">30</text></g></g><g class="overaxes-above"/></g><g class="subplot x4y4"><g class="layer-subplot"><g class="shapelayer"/><g class="imagelayer"/></g><g class="minor-gridlayer"><g class="x4"/><g class="y4"/></g><g class="gridlayer"><g class="x4"/><g class="y4"/></g><g class="zerolinelayer"><path class="x4zl zl crisp" transform="translate(60,0)" d="M0,408.9526315789474v66.04736842105262" style="stroke: rgb(255, 255, 255); stroke-opacity: 1; stroke-width: 2px;"/><path class="y4zl zl crisp" transform="translate(0,471.9226315789474)" d="M60,0h1440" style="stroke: rgb(255, 255, 255); stroke-opacity: 1; stroke-width: 2px;"/></g><path class="xlines-below"/><path class="ylines-below"/><g class="overlines-below"/><g class="xaxislayer-below"/><g class="yaxislayer-below"/><g class="overaxes-below"/><g class="plot" transform="translate(60,408.9526315789474)" clip-path="url(#clip405e6fx4y4plot)"><g class="scatterlayer mlayer"><g class="trace scatter trace3ff018" style="stroke-miterlimit: 2; opacity: 1;"><g class="fills"/><g class="errorbars"/><g class="lines"><path class="js-line" d="M0,61.88L11.16,61.88L22.33,59.49L33.49,28.33L44.65,39.31L55.81,59.54L66.98,58.62L78.14,61.88L89.3,39.19L100.47,37.06L111.63,61.88L122.79,54.85L133.95,61.25L145.12,61.88L156.28,53.97L167.44,59.33L178.6,61.36L189.77,61.88L200.93,35.73L212.09,61.88L223.26,61.88L234.42,38.95L245.58,61.88L256.74,30.09L267.91,45.22L279.07,58.65L290.23,56.72L301.4,56.79L312.56,59.85L334.88,61.88L346.05,29.74L357.21,57.69L368.37,47.66L379.53,50.75L390.7,33.83L401.86,26.98L413.02,54.66L424.19,50.99L435.35,21.4L446.51,61.88L457.67,57.98L480,47.41L491.16,30.71L502.33,61.62L513.49,56.58L524.65,57.35L535.81,37.78L546.98,61.88L558.14,53.78L569.3,30.05L580.47,24.14L591.63,45.82L602.79,19.43L613.95,61.87L625.12,28.88L636.28,61.88L647.44,61.88L658.6,56.39L669.77,61.88L680.93,55.32L692.09,51.12L703.26,50.75L714.42,61.88L725.58,54L736.74,60.68L747.91,21.36L759.07,58.71L770.23,61.23L781.4,61.88L792.56,59.53L803.72,22.85L814.88,48.87L826.05,60.52L837.21,61.88L848.37,53.83L870.7,33.13L881.86,61.88L893.02,43.08L904.19,57.45L915.35,47.58L926.51,57.77L937.67,24.72L948.84,57.83L960,58.71L971.16,55.84L982.33,42.06L993.49,53.99L1004.65,51.36L1015.81,61.88L1026.98,60.89L1038.14,29.55L1049.3,55.86L1060.47,54.48L1071.63,61.88L1082.79,46.03L1093.95,52.15L1105.12,47.74L1116.28,61.88L1127.44,30.98L1138.6,26.79L1149.77,56.81L1160.93,61.55L1172.09,57.82L1183.26,58.19L1194.42,32.98L1205.58,3.3L1216.74,61.88L1227.91,36.67L1239.07,51.61L1250.23,56.53L1261.4,54.12L1272.56,54.38L1283.72,42.09L1294.88,35.75L1306.05,34.87L1317.21,61.88L1328.37,61.88L1339.53,38.57L1350.7,56.05L1361.86,46.95L1373.02,55.97L1384.19,59.88L1395.35,52.1L1406.51,59.67L1417.67,55.08L1428.84,52.26L1440,54.3" style="vector-effect: non-scaling-stroke; fill: none; stroke: rgb(240, 240, 240); stroke-opacity: 1; stroke-width: 2px; opacity: 1;"/></g><g class="points"/><g class="text"/></g><g class="trace scatter trace9c256a" style="stroke-miterlimit: 2; opacity: 1;"><g class="fills"/><g class="errorbars"/><g class="lines"><path class="js-line" d="M0,62.25L11.16,62.25L22.33,60.22L33.49,44.64L44.65,50.13L55.81,60.06L66.98,59.79L78.14,61.95L89.3,50.08L100.47,49.01L111.63,61.81L122.79,57.91L133.95,61.11L145.12,62.25L156.28,57.46L167.44,59.95L178.6,61.16L189.77,62.25L200.93,48.34L212.09,62.25L223.26,62.25L234.42,49.95L245.58,62.25L256.74,45.52L267.91,53.09L279.07,59.8L290.23,58.84L301.4,58.87L312.56,60.4L323.72,60.77L334.88,62.25L346.05,45.35L357.21,59.32L368.37,54.31L379.53,55.85L390.7,47.4L401.86,43.97L413.02,57.81L424.19,55.97L435.35,41.18L446.51,62.25L480,53.99L491.16,45.83L502.33,61.29L513.49,58.77L524.65,59.15L535.81,49.37L546.98,62.25L558.14,57.37L569.3,45.51L580.47,42.55L591.63,53.39L602.79,40.2L613.95,61.42L625.12,44.92L636.28,62.25L647.44,62.25L658.6,58.68L669.77,62.25L680.93,58.14L692.09,56.04L703.26,55.85L714.42,62.07L725.58,57.48L736.74,60.82L747.91,41.16L759.07,59.83L781.4,62.25L792.56,60.25L803.72,41.9L814.88,54.92L826.05,60.74L837.21,62.2L870.7,47.05L881.86,62.25L893.02,52.02L904.19,59.2L915.35,54.27L926.51,59.37L937.67,42.84L948.84,59.39L960,59.83L971.16,58.4L982.33,51.51L993.49,57.48L1004.65,56.16L1015.81,62.25L1026.98,60.92L1038.14,45.26L1049.3,58.41L1060.47,57.72L1071.63,61.61L1082.79,53.3L1093.95,56.56L1105.12,54.35L1116.28,61.51L1127.44,45.97L1138.6,43.88L1149.77,58.88L1160.93,61.25L1172.09,59.39L1183.26,59.57L1194.42,46.97L1205.58,32.13L1216.74,62.25L1227.91,48.81L1239.07,56.29L1250.23,58.74L1261.4,57.54L1272.56,57.67L1283.72,51.52L1294.88,48.35L1306.05,47.91L1317.21,62.24L1328.37,62.25L1339.53,49.76L1350.7,58.5L1361.86,53.96L1373.02,58.47L1384.19,60.42L1395.35,56.53L1406.51,60.31L1417.67,58.02L1428.84,56.61L1440,57.63" style="vector-effect: non-scaling-stroke; fill: none; stroke: rgb(232, 220, 194); stroke-opacity: 1; stroke-width: 2px; opacity: 1;"/></g><g class="points"/><g class="text"/></g><g class="trace scatter trace9175d5" style="stroke-miterlimit: 2; opacity: 1;"><g class="fills"/><g class="errorbars"/><g class="lines"><path class="js-line" d="M0,62.14L11.16,62.52L22.33,60.78L33.49,50.39L44.65,54.05L55.81,60.55L66.98,60.49L78.14,61.93L89.3,54.01L100.47,53.3L111.63,61.83L122.79,59.23L133.95,61.37L145.12,62.52L156.28,58.94L178.6,61.4L189.77,62.52L200.93,52.86L212.09,62.52L223.26,62.52L234.42,53.93L245.58,62.52L256.74,50.98L279.07,60.5L290.23,59.85L301.4,59.88L312.56,60.9L323.72,61.14L334.88,62.52L346.05,50.86L357.21,60.18L368.37,56.83L379.53,57.86L390.7,52.23L401.86,49.94L413.02,59.17L424.19,57.94L435.35,48.08L446.51,62.52L480,56.51L491.16,51.18L502.33,61.49L513.49,59.81L524.65,60.06L535.81,53.54L546.98,62.52L558.14,58.87L569.3,50.97L580.47,49L591.63,56.22L602.79,47.42L613.95,61.57L625.12,50.57L636.28,62.52L647.44,62.52L658.6,59.74L669.77,62.52L680.93,59.39L692.09,57.99L703.26,57.86L714.42,62.01L725.58,58.95L736.74,61.17L747.91,48.07L759.07,60.52L781.4,62.52L792.56,60.79L803.72,48.56L814.88,57.24L826.05,61.12L837.21,62.09L870.7,51.99L881.86,62.52L893.02,55.31L904.19,60.1L915.35,56.81L926.51,60.21L937.67,49.19L948.84,60.22L960,60.52L971.16,59.56L982.33,54.97L993.49,58.95L1004.65,58.07L1015.81,62.52L1026.98,61.24L1038.14,50.8L1049.3,59.57L1060.47,59.11L1071.63,61.7L1082.79,56.05L1093.95,58.33L1105.12,56.86L1116.28,61.52L1127.44,51.27L1138.6,49.88L1149.77,59.88L1160.93,61.46L1172.09,60.22L1183.26,60.34L1194.42,51.94L1205.58,42.05L1216.74,62.52L1227.91,53.17L1239.07,58.15L1250.23,59.79L1261.4,58.99L1272.56,59.07L1283.72,54.98L1294.88,52.86L1306.05,52.57L1317.21,62.01L1328.37,62.52L1339.53,53.8L1350.7,59.63L1361.86,56.6L1373.02,59.61L1384.19,60.91L1395.35,58.32L1406.51,60.84L1417.67,59.31L1428.84,58.37L1440,59.05" style="vector-effect: non-scaling-stroke; fill: none; stroke: rgb(224, 199, 147); stroke-opacity: 1; stroke-width: 2px; opacity: 1;"/></g><g class="points"/><g class="text"/></g><g class="trace scatter tracea79903" style="stroke-miterlimit: 2; opacity: 1;"><g class="fills"/><g class="errorbars"/><g class="lines"><path class="js-line" d="M0,62.16L11.16,62.74L22.33,61.18L33.49,53.39L44.65,56.14L55.81,60.97L66.98,60.96L78.14,62.04L89.3,56.11L100.47,55.57L111.63,61.97L122.79,60.02L133.95,61.62L145.12,62.74L156.28,59.8L189.77,62.74L200.93,55.24L212.09,62.61L223.26,62.74L234.42,56.05L245.58,62.74L256.74,53.83L267.91,57.61L279.07,60.97L290.23,60.49L312.56,61.27L323.72,61.45L334.88,62.74L346.05,53.74L357.21,60.73L368.37,58.22L379.53,59L390.7,54.77L401.86,53.05L413.02,59.97L424.19,59.06L435.35,51.66L446.51,62.74L457.67,60.8L480,57.93L491.16,53.98L502.33,61.71L513.49,60.45L524.65,60.65L535.81,55.75L546.98,62.53L558.14,59.75L569.3,53.82L580.47,52.34L591.63,57.76L602.79,51.17L613.95,61.78L625.12,53.53L636.28,62.54L647.44,62.74L658.6,60.41L669.77,62.52L680.93,60.14L692.09,59.09L703.26,59L714.42,62.1L725.58,59.81L736.74,61.48L747.91,51.65L759.07,60.99L781.4,62.71L792.56,61.19L803.72,52.02L814.88,58.53L826.05,61.44L837.21,62.17L870.7,54.59L881.86,62.7L893.02,57.08L904.19,60.67L915.35,58.2L926.51,60.75L937.67,52.49L948.84,60.77L960,60.99L971.16,60.27L982.33,56.82L993.49,59.81L1004.65,59.15L1015.81,62.54L1026.98,61.53L1038.14,53.7L1049.3,60.27L1060.47,59.93L1071.63,61.88L1082.79,57.59L1093.95,59.35L1105.12,58.24L1116.28,61.69L1127.44,54.05L1138.6,53.01L1149.77,60.51L1160.93,61.7L1172.09,60.76L1183.26,60.86L1194.42,54.55L1205.58,47.13L1216.74,62.69L1227.91,55.48L1239.07,59.21L1250.23,60.44L1261.4,59.84L1272.56,59.9L1283.72,56.83L1294.88,55.25L1306.05,55.03L1317.21,62.06L1328.37,62.71L1339.53,55.95L1350.7,60.32L1361.86,58.05L1373.02,60.3L1384.19,61.28L1395.35,59.33L1406.51,61.23L1417.67,60.08L1428.84,59.37L1440,59.88" style="vector-effect: non-scaling-stroke; fill: none; stroke: rgb(216, 179, 101); stroke-opacity: 1; stroke-width: 2px; opacity: 1;"/></g><g class="points"/><g class="text"/></g></g></g><g class="overplot"/><path class="xlines-above crisp" d="M0,0" style="fill: none;"/><path class="ylines-above crisp" d="M0,0" style="fill: none;"/><g class="overlines-above"/><g class="xaxislayer-above"/><g class="yaxislayer-above"><g class="y4tick"><text text-anchor="end" x="59" y="4.199999999999999" transform="translate(0,471.9226315789474)" style="font-family: Raleway, 'PT Sans Narrow', Overpass, Arial; font-size: 12px; fill: rgb(42, 63, 95); fill-opacity: 1; white-space: pre; opacity: 1;">0</text></g><g class="y4tick"><text text-anchor="end" x="59" y="4.199999999999999" style="font-family: Raleway, 'PT Sans Narrow', Overpass, Arial; font-size: 12px; fill: rgb(42, 63, 95); fill-opacity: 1; white-space: pre; opacity: 1;" transform="translate(0,451.15263157894736)">200</text></g><g class="y4tick"><text text-anchor="end" x="59" y="4.199999999999999" style="font-family: Raleway, 'PT Sans Narrow', Overpass, Arial; font-size: 12px; fill: rgb(42, 63, 95); fill-opacity: 1; white-space: pre; opacity: 1;" transform="translate(0,430.3826315789474)">400</text></g><g class="y4tick"><text text-anchor="end" x="59" y="4.199999999999999" style="font-family: Raleway, 'PT Sans Narrow', Overpass, Arial; font-size: 12px; fill: rgb(42, 63, 95); fill-opacity: 1; white-space: pre; opacity: 1;" transform="translate(0,409.6126315789474)">600</text></g></g><g class="overaxes-above"/></g></g><g class="polarlayer"/><g class="smithlayer"/><g class="ternarylayer"/><g class="geolayer"/><g class="funnelarealayer"/><g class="pielayer"/><g class="iciclelayer"/><g class="treemaplayer"/><g class="sunburstlayer"/><g class="glimages"/><defs id="topdefs-405e6f"><g class="clips"/><clipPath id="legend405e6f"><rect width="639" height="29" x="0" y="0"/></clipPath></defs><g class="layer-above"><g class="imagelayer"/><g class="shapelayer"/></g><g class="infolayer"><g class="legend" pointer-events="all" transform="translate(460.5,1)"><rect class="bg" shape-rendering="crispEdges" style="stroke: rgb(68, 68, 68); stroke-opacity: 1; fill: rgb(255, 255, 255); fill-opacity: 1; stroke-width: 0px;" width="639" height="29" x="0" y="0"/><g class="scrollbox" transform="" clip-path="url(#legend405e6f)"><g class="groups" transform=""><g class="traces" transform="translate(0,14.5)" style="opacity: 1;"><text class="legendtext" text-anchor="start" x="40" y="4.680000000000001" style="font-family: Raleway, 'PT Sans Narrow', Overpass, Arial; font-size: 12px; fill: rgb(42, 63, 95); fill-opacity: 1; white-space: pre;">Quantile 0.1-0.9</text><g class="layers"><g class="legendfill"><path class="js-fill" d="M5,-2h30v6h-30z" style="stroke-width: 0; fill: rgb(240, 240, 240); fill-opacity: 0.5;"/></g><g class="legendlines"><path class="js-line" d="M5,-2h30" style="fill: none; stroke: rgb(240, 240, 240); stroke-opacity: 1; stroke-width: 1px;"/></g><g class="legendsymbols"><g class="legendpoints"/></g></g><rect class="legendtoggle" x="0" y="-9.5" width="109.390625" height="19" style="fill: rgb(0, 0, 0); fill-opacity: 0;"/></g></g><g class="groups" transform="translate(111.890625,0)"><g class="traces" transform="translate(0,14.5)" style="opacity: 1;"><text class="legendtext" text-anchor="start" x="40" y="4.680000000000001" style="font-family: Raleway, 'PT Sans Narrow', Overpass, Arial; font-size: 12px; fill: rgb(42, 63, 95); fill-opacity: 1; white-space: pre;">Quantile 0.2-0.8</text><g class="layers"><g class="legendfill"><path class="js-fill" d="M5,-2h30v6h-30z" style="stroke-width: 0; fill: rgb(232, 220, 194); fill-opacity: 0.5;"/></g><g class="legendlines"><path class="js-line" d="M5,-2h30" style="fill: none; stroke: rgb(232, 220, 194); stroke-opacity: 1; stroke-width: 1px;"/></g><g class="legendsymbols"><g class="legendpoints"/></g></g><rect class="legendtoggle" x="0" y="-9.5" width="109.390625" height="19" style="fill: rgb(0, 0, 0); fill-opacity: 0;"/></g></g><g class="groups" transform="translate(223.78125,0)"><g class="traces" transform="translate(0,14.5)" style="opacity: 1;"><text class="legendtext" text-anchor="start" x="40" y="4.680000000000001" style="font-family: Raleway, 'PT Sans Narrow', Overpass, Arial; font-size: 12px; fill: rgb(42, 63, 95); fill-opacity: 1; white-space: pre;">Quantile 0.3-0.7</text><g class="layers"><g class="legendfill"><path class="js-fill" d="M5,-2h30v6h-30z" style="stroke-width: 0; fill: rgb(224, 199, 147); fill-opacity: 0.5;"/></g><g class="legendlines"><path class="js-line" d="M5,-2h30" style="fill: none; stroke: rgb(224, 199, 147); stroke-opacity: 1; stroke-width: 1px;"/></g><g class="legendsymbols"><g class="legendpoints"/></g></g><rect class="legendtoggle" x="0" y="-9.5" width="109.390625" height="19" style="fill: rgb(0, 0, 0); fill-opacity: 0;"/></g></g><g class="groups" transform="translate(335.671875,0)"><g class="traces" transform="translate(0,14.5)" style="opacity: 1;"><text class="legendtext" text-anchor="start" x="40" y="4.680000000000001" style="font-family: Raleway, 'PT Sans Narrow', Overpass, Arial; font-size: 12px; fill: rgb(42, 63, 95); fill-opacity: 1; white-space: pre;">Quantile 0.4-0.6</text><g class="layers"><g class="legendfill"><path class="js-fill" d="M5,-2h30v6h-30z" style="stroke-width: 0; fill: rgb(216, 179, 101); fill-opacity: 0.5;"/></g><g class="legendlines"><path class="js-line" d="M5,-2h30" style="fill: none; stroke: rgb(216, 179, 101); stroke-opacity: 1; stroke-width: 1px;"/></g><g class="legendsymbols"><g class="legendpoints"/></g></g><rect class="legendtoggle" x="0" y="-9.5" width="109.390625" height="19" style="fill: rgb(0, 0, 0); fill-opacity: 0;"/></g></g><g class="groups" transform="translate(447.5625,0)"><g class="traces" transform="translate(0,14.5)" style="opacity: 1;"><text class="legendtext" text-anchor="start" x="40" y="4.680000000000001" style="font-family: Raleway, 'PT Sans Narrow', Overpass, Arial; font-size: 12px; fill: rgb(42, 63, 95); fill-opacity: 1; white-space: pre;">Median Prediction</text><g class="layers" style="opacity: 1;"><g class="legendfill"/><g class="legendlines"><path class="js-line" d="M5,0h30" style="fill: none; stroke: rgb(216, 179, 101); stroke-opacity: 1; stroke-dasharray: 3px, 3px; stroke-width: 2px;"/></g><g class="legendsymbols"><g class="legendpoints"/></g></g><rect class="legendtoggle" x="0" y="-9.5" width="117.28125" height="19" style="fill: rgb(0, 0, 0); fill-opacity: 0;"/></g></g><g class="groups" transform="translate(567.34375,0)"><g class="traces" transform="translate(0,14.5)" style="opacity: 1;"><text class="legendtext" text-anchor="start" x="40" y="4.680000000000001" style="font-family: Raleway, 'PT Sans Narrow', Overpass, Arial; font-size: 12px; fill: rgb(42, 63, 95); fill-opacity: 1; white-space: pre;">Target</text><g class="layers" style="opacity: 1;"><g class="legendfill"/><g class="legendlines"><path class="js-line" d="M5,0h30" style="fill: none; stroke: rgb(0, 60, 48); stroke-opacity: 1; stroke-width: 0.5px;"/></g><g class="legendsymbols"><g class="legendpoints"/></g></g><rect class="legendtoggle" x="0" y="-9.5" width="68.375" height="19" style="fill: rgb(0, 0, 0); fill-opacity: 0;"/></g></g></g><rect class="scrollbar" rx="20" ry="3" width="0" height="0" style="fill: rgb(128, 139, 164); fill-opacity: 1;" x="0" y="0"/></g><g class="g-gtitle"/><g class="g-xtitle"/><g class="g-x2title"/><g class="g-x3title"/><g class="g-x4title"><text class="x4title" x="780" y="24.30000000000001" text-anchor="middle" style="font-family: Raleway, 'PT Sans Narrow', Overpass, Arial; font-size: 14px; fill: rgb(42, 63, 95); opacity: 1; font-weight: normal; white-space: pre;"><tspan style="font-weight:bold">Time</tspan> (timestamp shuffled)</text></g><g class="g-ytitle" transform="translate(12.2041015625,0)"><text class="ytitle" transform="rotate(-90,0.296875,140.07894736842104)" x="0.296875" y="140.07894736842104" text-anchor="middle" style="font-family: Raleway, 'PT Sans Narrow', Overpass, Arial; font-size: 14px; fill: rgb(42, 63, 95); opacity: 1; font-weight: normal; white-space: pre;"><tspan class="line" dy="0em" x="0.296875" y="140.07894736842104"><tspan style="font-weight:bold">Power</tspan></tspan><tspan class="line" dy="1.3em" x="0.296875" y="140.07894736842104"><tspan style="font-weight:bold">Consumption<tspan style="font-weight:bold"></tspan></tspan></tspan></text></g><g class="g-y2title" transform="translate(6.81640625,0)"><text class="y2title" transform="rotate(-90,5.6875,292.0815789473685)" x="5.6875" y="292.0815789473685" text-anchor="middle" style="font-family: Raleway, 'PT Sans Narrow', Overpass, Arial; font-size: 14px; fill: rgb(42, 63, 95); opacity: 1; font-weight: normal; white-space: pre;"><tspan class="line" dy="0em" x="5.6875" y="292.0815789473685"><tspan style="font-weight:bold">Penalty</tspan></tspan><tspan class="line" dy="1.3em" x="5.6875" y="292.0815789473685"><tspan style="font-weight:bold">Low</tspan></tspan></text></g><g class="g-y3title" transform="translate(6.826171875,0)"><text class="y3title" transform="rotate(-90,5.6875,367.0289473684211)" x="5.6875" y="367.0289473684211" text-anchor="middle" style="font-family: Raleway, 'PT Sans Narrow', Overpass, Arial; font-size: 14px; fill: rgb(42, 63, 95); opacity: 1; font-weight: normal; white-space: pre;"><tspan class="line" dy="0em" x="5.6875" y="367.0289473684211"><tspan style="font-weight:bold">Penalty</tspan></tspan><tspan class="line" dy="1.3em" x="5.6875" y="367.0289473684211"><tspan style="font-weight:bold">High</tspan></tspan></text></g><g class="g-y4title" transform="translate(12.2109375,0)"><text class="y4title" transform="rotate(-90,0.296875,441.9763157894737)" x="0.296875" y="441.9763157894737" text-anchor="middle" style="font-family: Raleway, 'PT Sans Narrow', Overpass, Arial; font-size: 14px; fill: rgb(42, 63, 95); opacity: 1; font-weight: normal; white-space: pre;"><tspan class="line" dy="0em" x="0.296875" y="441.9763157894737"><tspan style="font-weight:bold">Interval</tspan></tspan><tspan class="line" dy="1.3em" x="0.296875" y="441.9763157894737"><tspan style="font-weight:bold">Score</tspan></tspan></text></g></g></svg>